<?xml version="1.0" standalone="no"?>
<!DOCTYPE svg PUBLIC "-//W3C//DTD SVG 1.1//EN" "http://www.w3.org/Graphics/SVG/1.1/DTD/svg11.dtd" >
<svg xmlns="http://www.w3.org/2000/svg" xmlns:xlink="http://www.w3.org/1999/xlink" version="1.1">
<metadata></metadata>
<defs>
<font id="dating_historiablack" horiz-adv-x="1378" >
<font-face units-per-em="2048" ascent="1638" descent="-410" />
<missing-glyph horiz-adv-x="806" />
<glyph horiz-adv-x="0" />
<glyph horiz-adv-x="0" />
<glyph horiz-adv-x="682" />
<glyph unicode="&#xa;" horiz-adv-x="0" />
<glyph unicode="&#xd;" horiz-adv-x="681" />
<glyph unicode=" "  horiz-adv-x="806" />
<glyph unicode="&#x09;" horiz-adv-x="806" />
<glyph unicode="&#xa0;" horiz-adv-x="806" />
<glyph unicode="!" horiz-adv-x="606" d="M119 109.5q0 52.5 53 98.5t131 46q39 0 74 -13.5t58.5 -35t36.5 -47t13 -49.5q0 -51 -52 -96.5t-130 -45.5t-131 45t-53 97.5zM133 1642q-2 31 18.5 62t61.5 52.5t90 21.5q74 0 123 -44t47 -92l-108 -1343q-25 -20 -62 -20q-16 0 -31.5 5t-23.5 11l-8 4z" />
<glyph unicode="&#x22;" horiz-adv-x="665" d="M84 1696q-2 27 33 54.5t86 27.5t88 -28t35 -54l-68 -275q-18 -18 -55 -18q-14 0 -28.5 5t-20.5 9l-7 4zM342 1696q-2 27 33 54.5t86 27.5t86 -28t33 -54l-64 -275q-20 -18 -55 -18q-16 0 -30.5 5t-18.5 9l-6 4z" />
<glyph unicode="#" horiz-adv-x="1204" d="M106 449v141h203l49 229h-252v144h285l96 446h123l-98 -446h295l96 446h121l-96 -446h170v-144h-203l-49 -229h252v-141h-285l-96 -449h-121l96 449h-291l-100 -449h-121l96 449h-170zM430 590h295l49 229h-293z" />
<glyph unicode="$" horiz-adv-x="1306" d="M111 281q0 35 22.5 67.5t66.5 55t95 22.5q78 0 130 -46t52 -99q0 -94 36 -171t81 -87v667q-14 10 -65.5 44t-70 46.5t-64.5 45t-65.5 49t-57.5 49t-55 55t-41.5 56.5t-36 62.5t-19.5 64.5t-8 73q0 72 34.5 140.5t95 123.5t151.5 89t198 34h4v156h123v-162 q49 -6 103 -18.5t110.5 -37t100.5 -55t73 -77t29 -98.5t-54.5 -98t-131.5 -46t-130 46t-53 99q0 57 -11.5 111.5t-21.5 79t-14 26.5v-590q70 -45 97.5 -63t92 -64.5t94 -75t75.5 -77.5t66.5 -90t38 -96.5t17.5 -114.5q0 -76 -28.5 -146.5t-86 -131t-153.5 -96.5t-221 -36h8 v-155h-123v159q-127 10 -240.5 59.5t-178 118t-64.5 132.5zM375 1362q0 -180 219 -322v539h10q-8 2 -14 2q-98 0 -156.5 -57.5t-58.5 -161.5zM717 8q74 2 124 36t71.5 86t21.5 122q0 207 -217 354v-598z" />
<glyph unicode="%" horiz-adv-x="1718" d="M90 1206q0 166 116 291t281 125q170 0 286 -125t116 -291q0 -168 -116 -293t-286 -125q-111 0 -202.5 59.5t-143 155t-51.5 203.5zM315 1206q0 -172 47.5 -280.5t124.5 -108.5q82 0 129.5 107.5t47.5 281.5q0 84 -12.5 157t-35 124t-55.5 80.5t-74 29.5 q-78 0 -125 -109.5t-47 -281.5zM416 -188l776 1966h115l-775 -1966h-116zM836 383q0 166 114.5 291t282.5 125q113 0 205 -59.5t143 -155t51 -201.5q0 -109 -51 -205t-143 -154.5t-205 -58.5q-168 0 -282.5 125t-114.5 293zM1059 383q0 -174 47 -282.5t128 -108.5t128 108.5 t47 282.5q0 172 -48 281.5t-128 109.5t-127 -109.5t-47 -281.5z" />
<glyph unicode="&#x26;" horiz-adv-x="1677" d="M109 418q0 164 94 290t223 197q-203 272 -211 494q-8 190 109.5 298.5t291.5 112.5q121 4 212.5 -29.5t140.5 -98t53 -150.5q2 -129 -110.5 -277.5t-256.5 -244.5q117 -231 286 -441.5t316 -330.5q45 49 81 142t36 191q0 61 -14 104.5t-35.5 62t-50.5 18.5 q-8 0 -78 -15.5t-121 -7.5q-76 10 -118 64.5t-31 109.5q6 31 32.5 60.5t67.5 46.5h10q53 18 113.5 13t122 -46t112 -96.5t82 -137t31.5 -169.5q0 -208 -180 -388q106 -80 183 -114.5t155 -30.5v-45q-207 -4 -414 125q-80 -66 -220 -112t-294 -46q-156 0 -277.5 39 t-194.5 104.5t-109.5 143.5t-36.5 164zM414 522q0 -76 15 -147.5t49 -135t82 -111.5t116.5 -75.5t148.5 -27.5q186 0 353 137q-188 121 -381 309t-318 358q-8 -16 -19 -42.5t-28.5 -107.5t-17.5 -157zM520 1503q0 -43 5 -91t15.5 -91t22.5 -86t24.5 -78t24.5 -61 q35 47 72 194.5t33 257.5q-4 96 -32.5 159.5t-63.5 61.5q-100 -6 -101 -266z" />
<glyph unicode="'" horiz-adv-x="409" d="M84 1696q-2 27 33 54.5t86 27.5t88 -28t35 -54l-68 -275q-18 -18 -55 -18q-14 0 -28.5 5t-20.5 9l-7 4z" />
<glyph unicode="(" horiz-adv-x="782" d="M113 891q0 180 50 345t132 280.5t183.5 192.5t207.5 101h84q-109 -41 -189.5 -169t-121.5 -321t-41 -431q0 -360 94 -611t258 -311h-84q-106 25 -207.5 99.5t-183.5 188.5t-132 279.5t-50 356.5z" />
<glyph unicode=")" horiz-adv-x="780" d="M12 -33q164 59 258.5 310t94.5 612q0 360 -94.5 610t-258.5 311h84q106 -25 206.5 -99.5t182.5 -188t131.5 -278.5t49.5 -355q0 -182 -49.5 -346t-131.5 -281t-182 -193.5t-207 -101.5h-84z" />
<glyph unicode="*" horiz-adv-x="911" d="M106 1229q-35 55 41 100l252 84l-256 88q-72 41 -37 96q23 33 86.5 41.5t108.5 -22.5l70 -70l-37 150q-2 27 32.5 54.5t86.5 27.5q53 0 89 -28t33 -54l-34 -150l67 70q47 31 110.5 22.5t84.5 -41.5q35 -57 -37 -96l-256 -88l256 -84q72 -45 37 -100q-20 -33 -84 -41 t-111 24l-67 68l34 -150q2 -27 -33.5 -54t-88.5 -27q-51 0 -86 27.5t-33 53.5l37 150l-70 -68q-45 -33 -108.5 -24.5t-86.5 41.5z" />
<glyph unicode="+" horiz-adv-x="1128" d="M68 633v143h434v633h123v-633h434v-143h-434v-633h-123v633h-434z" />
<glyph unicode="," horiz-adv-x="505" d="M47 -223q39 37 47 98.5t-3 144t-11 91.5q0 55 47 99t125 44q74 0 123 -45t49 -98q0 -66 -57.5 -150t-133 -141.5t-129.5 -57.5q-14 0 -27.5 4.5t-21.5 7.5z" />
<glyph unicode="-" horiz-adv-x="1132" d="M70 633v143h991v-143h-991z" />
<glyph unicode="." horiz-adv-x="524" d="M78 109.5q0 52.5 53 98.5t131 46t130 -46t52 -98.5t-52 -97.5t-130 -45t-131 45t-53 97.5z" />
<glyph unicode="/" horiz-adv-x="784" d="M61 -33l541 1843h121l-541 -1843h-121z" />
<glyph unicode="0" horiz-adv-x="1619" d="M111 793q0 168 50 318.5t139 264t222 180t289 66.5q205 0 365.5 -114.5t245.5 -302t85 -412.5q0 -221 -85 -408.5t-245.5 -302.5t-365.5 -115q-156 0 -289 66.5t-222 180.5t-139 263.5t-50 315.5zM416 793q0 -225 44 -394.5t134 -266.5t217 -97q125 0 214 97t134 267 t45 394q0 344 -103.5 552.5t-289.5 208.5q-190 0 -292.5 -207.5t-102.5 -553.5z" />
<glyph unicode="1" horiz-adv-x="792" d="M104 0v33q41 0 59.5 4t38 20.5t27 56.5t11.5 102.5t4 168.5v883v61q0 57 1 80t-5.5 49.5t-11.5 31.5t-25.5 10t-38 2t-60.5 -11v33l447 114v-1253q0 -104 4 -167.5t11 -103.5t27.5 -56.5t40 -20.5t58.5 -4v-33h-588z" />
<glyph unicode="2" horiz-adv-x="1245" d="M115 0v217q0 133 21.5 242.5t57 183.5t85 135.5t103.5 100.5t112.5 75.5t113 62t103.5 58.5t86 68t57 87t20 120q0 100 -56 153t-136 53q-170 0 -170 -225q0 -53 -54.5 -99t-130 -46t-129 46t-53.5 99q0 117 150.5 204t353.5 87q170 0 307.5 -112.5t137.5 -274.5 q0 -88 -30 -158.5t-79 -120t-113.5 -89.5t-135 -74.5t-142.5 -70.5t-136.5 -81t-113.5 -100.5t-78.5 -136t-29.5 -181.5h552q88 0 145.5 6.5t91.5 15.5t50.5 27.5t21.5 38t5 51.5h33v-362h-1020z" />
<glyph unicode="3" horiz-adv-x="1257" d="M104 256q0 55 53.5 101t131.5 46t130 -46t52 -101q0 -223 125 -223q82 0 142.5 75.5t87 194.5t16.5 252q-4 59 -13.5 104.5t-27 88.5t-46 68.5t-68.5 38.5t-96 7t-128 -31v52q84 41 149.5 104.5t105.5 155.5t40 198q0 90 -30 152.5t-101 62.5q-29 0 -55.5 -13t-49 -38.5 t-36 -70.5t-13.5 -103q0 -53 -53 -99t-131 -46q-51 0 -95 22.5t-67 56t-23 66.5q0 74 55.5 133.5t140.5 92t174 49t171 16.5q418 0 418 -303q0 -72 -26.5 -129t-76 -97t-92.5 -64.5t-103 -51.5t-83 -39q197 47 331 -56.5t134 -306.5q0 -111 -41 -217t-116 -194 t-194.5 -142.5t-267.5 -54.5q-106 0 -202.5 35t-159 102.5t-62.5 151.5z" />
<glyph unicode="4" horiz-adv-x="1183" d="M59 446v27l756 1116h127v-1034h80v-106h-80v-64q0 -76 2 -127t5 -91t12.5 -63.5t16.5 -39t25.5 -21.5t34 -8t43.5 -2v-33h-583v33q41 0 59 4t37.5 20.5t27 56.5t11.5 102.5t4 168.5v61h-578zM223 555h414v608z" />
<glyph unicode="5" horiz-adv-x="1253" d="M111 223q0 55 53 101.5t131 46.5t130 -47.5t52 -100.5q0 -111 27.5 -162t64.5 -51q49 0 101.5 55.5t93.5 145.5t60.5 219t2.5 260q-63 563 -598 324l-116 20l102 555h483q143 0 213 16.5t86.5 42t16.5 81.5h33v-363h-752l-53 -291q215 94 499 76q207 -12 303.5 -120.5 t96.5 -319.5q0 -96 -21.5 -193.5t-71 -198t-122 -177t-186 -126t-253.5 -49.5q-160 0 -268 76t-108 180z" />
<glyph unicode="6" horiz-adv-x="1349" d="M113 745q0 254 74.5 451t225 311.5t359.5 114.5q102 0 190.5 -26.5t145.5 -69.5t90 -94.5t33 -100.5q0 -33 -22.5 -66.5t-65.5 -56t-94 -22.5q-76 0 -131.5 46t-55.5 99q0 119 -30.5 184.5t-90.5 65.5q-74 0 -132 -47t-95 -127t-58.5 -171t-25.5 -189q14 27 125 55 t197 28q129 0 224 -44t149.5 -124.5t80 -182t25.5 -226.5q0 -162 -62.5 -294t-187.5 -212t-293 -80q-141 0 -252.5 58.5t-181.5 164t-105.5 247t-35.5 308.5zM418 774q0 -158 25.5 -303t66.5 -244.5t92 -159t98 -59.5q86 0 158 139.5t72 384.5q0 213 -80 370t-186 157 q-53 0 -127 -57.5t-119 -151.5v-76z" />
<glyph unicode="7" horiz-adv-x="1175" d="M90 1225v364h1020q0 -88 -48 -216t-115.5 -269t-135.5 -296t-116 -340t-48 -359q0 -51 -53 -96.5t-129 -45.5q-78 0 -131 45t-53 97q0 121 53 252t137 253.5t172 240.5t175 255t132 256h-516q-86 0 -144.5 -5t-92 -15.5t-50 -30t-20.5 -37.5t-4 -53h-33z" />
<glyph unicode="8" horiz-adv-x="1327" d="M115 383q0 80 35.5 157.5t83 131t105.5 100.5t92 67.5t54 30.5q-12 6 -36 23q-70 41 -104 63.5t-85 61.5t-74.5 69.5t-43 72.5t-19.5 87q0 92 52 167t133 119t169 66.5t170 22.5q113 0 210 -33t158.5 -83t96.5 -109.5t35 -116.5q0 -55 -30 -106.5t-70.5 -87t-97 -67.5 t-95.5 -48.5t-80 -30.5q84 -49 135.5 -82t117 -85t102 -99t62.5 -108.5t26 -129.5q0 -18 -3.5 -43.5t-17.5 -69.5t-36.5 -87t-65.5 -89.5t-98.5 -83t-142.5 -63.5t-191 -33q-242 -16 -394.5 98.5t-152.5 317.5zM379 424q0 -201 83 -308.5t195 -107.5q119 0 200 91.5 t81 234.5q0 39 -7 77t-16.5 66.5t-33 62t-35.5 54t-47 51.5t-47.5 43t-56.5 43t-53 37l-57 38t-53 34q-53 -37 -103 -172.5t-50 -243.5zM406 1346q0 -29 6 -56.5t13 -49t24.5 -46.5t26.5 -39t37 -37.5t38 -33t44 -31t43 -27.5t47 -28.5t44 -26.5q51 27 102.5 117t51.5 204 q0 135 -68 212t-170 77t-170.5 -61.5t-68.5 -173.5z" />
<glyph unicode="9" horiz-adv-x="1347" d="M117 256q0 55 53 101t131 46t130 -46t52 -101q0 -117 33 -182.5t92 -65.5q94 0 166 84t105.5 201t40.5 250q-18 -27 -128 -55.5t-194 -28.5q-129 0 -224 45t-150.5 126t-81 181t-25.5 225q0 162 61.5 294t187.5 212t293 80q188 0 320.5 -103.5t194 -275.5t61.5 -399 q0 -256 -75 -452.5t-225.5 -310.5t-359.5 -114q-100 0 -189 26.5t-146.5 68.5t-90 93.5t-32.5 100.5zM422 1057q0 -213 78 -370t184 -157q53 0 128 57.5t118 149.5q0 16 2 42t2 38q0 156 -26.5 301.5t-68.5 244.5t-92.5 158.5t-97.5 59.5q-86 0 -156.5 -138t-70.5 -386z" />
<glyph unicode=":" horiz-adv-x="557" d="M94 109.5q0 52.5 53.5 98.5t131.5 46q39 0 73.5 -13.5t58 -35t37 -47t13.5 -49.5q0 -51 -52.5 -96.5t-129.5 -45.5q-78 0 -131.5 45t-53.5 97.5zM94 778q0 33 22.5 66t66.5 54.5t96 21.5q78 0 130 -44.5t52 -97.5t-52 -99t-130 -46q-51 0 -95.5 22.5t-67 55t-22.5 67.5z " />
<glyph unicode=";" horiz-adv-x="557" d="M84 -223q39 37 47 98.5t-3 144t-11 91.5q0 55 47 99t125 44q74 0 123 -45t49 -98q0 -66 -57.5 -150t-133 -141.5t-129.5 -57.5q-14 0 -27.5 4.5t-21.5 7.5zM94 778q0 53 54.5 97.5t131 44.5t129 -44.5t52.5 -97.5t-52.5 -99t-129 -46t-131 46t-54.5 99z" />
<glyph unicode="&#x3c;" horiz-adv-x="837" d="M76 705q0 8 12 20l551 661q8 12 47 14.5t57 -7.5q6 -8 11 -9q-2 0 -4 -2l-469 -677l469 -676q0 -2 2 -2q-2 0 -4 -2q-16 -14 -58.5 -13.5t-50.5 13.5l-555 665q-8 10 -8 15zM752 27zM754 1384z" />
<glyph unicode="=" horiz-adv-x="1161" d="M84 449v141h991v-141h-991zM84 819v144h991v-144h-991z" />
<glyph unicode="&#x3e;" horiz-adv-x="833" d="M80 1382q4 2 16 15q8 10 47 6t50 -17l552 -661q10 -14 11 -20q0 -4 -11 -21l-552 -659q-10 -12 -50.5 -14.5t-52.5 9.5q-6 4 -8 5q0 2 2 4l469 676l-471 677h-2zM82 25z" />
<glyph unicode="?" horiz-adv-x="1251" d="M72 1495q0 115 176 215t422 100q125 0 221 -36.5t153.5 -96t86 -131t28.5 -147.5q0 -100 -34.5 -197.5t-90 -175.5t-122 -152.5t-134 -144.5t-125 -137.5t-94.5 -143t-41 -149.5q-27 -20 -61 -20q-16 0 -32.5 5t-23.5 11l-8 4q2 145 31 270t73 213t97 167t106.5 144.5 t97.5 130t70.5 140.5t26.5 160q0 111 -55.5 178t-169.5 67q-115 0 -173.5 -77.5t-58.5 -196.5q0 -51 -52 -97t-130 -46q-51 0 -95 22.5t-66.5 55t-22.5 65.5zM283 63q-20 49 4 98.5t92 76.5q74 29 150.5 1t99.5 -81q20 -51 -4.5 -100.5t-87.5 -77.5q-70 -29 -151 0.5 t-103 82.5z" />
<glyph unicode="@" horiz-adv-x="2138" d="M106 887q0 184 76 354t204 295t307 199.5t377 74.5t377 -74.5t307 -199.5t204 -295t76 -354q0 -135 -45 -257t-112 -201t-142.5 -126t-143.5 -47q-98 0 -185 13.5t-133 31.5t-50 33q-16 -23 -120 -56.5t-200 -33.5q-160 0 -270.5 83t-110.5 230q0 104 53.5 198.5t129 160 t173 121t174 85t142.5 47.5q-6 127 -27.5 183.5t-66.5 56.5q-66 0 -170.5 -99.5t-192.5 -279.5l-129 189q133 100 273.5 163.5t240.5 63.5q162 0 271.5 -96.5t109.5 -270.5v-495q0 -139 7.5 -199.5t18.5 -73t44 -12.5q37 0 78 42t76.5 115.5t58 187.5t22.5 243 q0 250 -89 449.5t-258 316t-391 116.5t-391 -116.5t-258 -316t-89 -449.5t89 -448.5t258 -314.5t390 -116q158 0 301 60.5t293 193.5l51 -59q-121 -109 -291 -172.5t-354 -63.5q-197 0 -376 75t-307 200t-204 294t-76 351zM829 557q0 -123 45.5 -186.5t114.5 -63.5 q115 0 207 150v30q6 -2 8 63.5t1 161t-3 190.5t-4 161l-2 67q-59 -16 -121.5 -61t-119 -114.5t-91.5 -173t-35 -224.5z" />
<glyph unicode="A" d="M-16 0v33q37 0 54 2t41.5 12t38 30.5t34 60.5t38 97.5t41.5 145.5l285 1003q25 88 39 146.5t18.5 100.5t2 63.5t-16.5 33t-30.5 14.5t-47.5 3v33h273l391 -1397q25 -90 42 -146.5t37.5 -96.5t34 -60.5t37 -30.5t42 -12t55.5 -2v-33h-582v33q31 0 46 2t30.5 14t16.5 32.5 t-3 62.5t-18.5 99.5t-38.5 147.5l-131 453h-232l-127 -453q-18 -68 -30.5 -116t-19.5 -86.5t-11 -63.5t0 -43.5t9 -27.5t19.5 -14t27.5 -6t38 -1v-33h-403zM502 909h194l-98 351z" />
<glyph unicode="B" horiz-adv-x="1361" d="M49 0v33q41 0 59.5 4t38 20.5t26.5 56.5t11 102.5t4 168.5v1008q0 104 -4 167.5t-11 103.5t-26.5 55.5t-38 20.5t-59.5 5v33h246q82 0 222 16t163 16q47 0 97 -9t103.5 -27.5t102.5 -44t93 -62.5t77 -81t51.5 -100t18.5 -120q0 -156 -105 -255t-250 -132q86 -16 159 -52 t134.5 -92.5t97 -143.5t35.5 -193q0 -76 -20.5 -144.5t-55 -121t-81.5 -96.5t-101.5 -74.5t-113 -52t-116.5 -32t-114 -10.5q-25 0 -170 16.5t-227 16.5h-246zM494 53q25 -2 98 -11t100 -9q121 0 209 130t88 335q0 137 -42 239.5t-108.5 153.5t-146.5 51h-198v-889z M494 1008h186q100 0 170 95t70 264t-71 272.5t-169 103.5q-25 0 -94 -9.5t-92 -11.5v-714z" />
<glyph unicode="C" horiz-adv-x="1413" d="M66 887q0 250 93 459.5t270 336.5t402 127q219 0 357.5 -99t138.5 -238q0 -43 -15.5 -81t-42 -63.5t-61 -41t-75.5 -15.5q-104 0 -155.5 52t-51.5 136q0 29 5 77t6 79t-5 63.5t-30.5 48t-70.5 15.5q-147 0 -254.5 -115t-156.5 -290t-49 -380q0 -123 18.5 -238.5 t52 -210.5t80.5 -176t100.5 -137.5t112 -91t117.5 -41.5q20 -2 40 -2q238 0 386 299l102 -55q-82 -154 -226 -246t-323 -92q-225 0 -402 127t-270 336t-93 457z" />
<glyph unicode="D" horiz-adv-x="1454" d="M49 0v33q41 0 59.5 4t38 20.5t26.5 56.5t11 102.5t4 168.5v1008q0 51 -1 92t-3 74.5t-4 59.5t-8 45t-10 32.5t-14.5 23t-17.5 13.5t-22.5 7t-26.5 4t-32 1v33h193q82 0 219 16t162 16q223 0 400 -127t271.5 -336.5t94.5 -459.5q0 -248 -94.5 -457t-271.5 -336t-400 -127 q-25 0 -162 16.5t-219 16.5h-193zM494 47q94 -12 129 -12q147 0 252.5 110.5t156.5 301t51 440.5q0 252 -51 442.5t-156.5 302t-252.5 111.5q-35 0 -129 -12v-1684z" />
<glyph unicode="E" horiz-adv-x="1239" d="M49 0v33q41 0 59.5 4t38 20.5t26.5 56.5t11 102.5t4 168.5v1008q0 51 -1 92t-3 74.5t-4 59.5t-8 45t-10 32.5t-14.5 23t-17.5 13.5t-22.5 7t-26.5 4t-32 1v33h1059v-559h-33q0 491 -310 491h-1h-268v-788h153q152 0 202 35.5t50 140.5h33v-418h-33q0 70 -21.5 106.5 t-73.5 52t-157 15.5h-153v-786h311q82 0 142.5 36.5t92 88t50 124t22.5 127t4 113.5h33v-557h-1102z" />
<glyph unicode="F" horiz-adv-x="1150" d="M47 0v33q41 0 59.5 4t38 20.5t26.5 56.5t11 102.5t4 168.5v1008q0 104 -4 167.5t-11 103.5t-26.5 55.5t-38 20.5t-59.5 5v33h1059v-559h-33q0 491 -310 491h-1h-268v-788h153q152 0 202 35.5t50 140.5h33v-418h-33q0 53 -10 85t-40 53.5t-77 28.5t-125 7h-153v-520 q0 -90 5 -144.5t12 -87t26.5 -47t38 -18.5t57.5 -4v-33h-586z" />
<glyph unicode="G" horiz-adv-x="1501" d="M66 887q0 250 93 458.5t270 336.5t402 128q92 0 171 -18t132.5 -50t94.5 -70t63.5 -82t32.5 -85t10 -78q0 -53 -54 -97t-131 -44t-131 44t-54 97v29q1 30 1 50v16q-1 22 -2 59t-5.5 55.5t-10.5 44t-15 39t-23.5 26.5t-34 18t-44.5 5q-150 0 -256 -118.5t-155 -314 t-49 -449.5q0 -252 49 -447.5t155.5 -313.5t255.5 -118q57 0 95.5 22.5t56.5 67.5t25.5 99.5t7.5 132.5v98q0 106 -4 168.5t-11.5 102.5t-27 56.5t-37.5 20.5t-59 4v33h585v-33q-41 0 -60.5 -4t-39 -20.5t-26.5 -56.5t-11 -102t-4 -169v-428h-94l-86 66q-133 -98 -310 -99 q-225 0 -402 127t-270 336t-93 457z" />
<glyph unicode="H" horiz-adv-x="1603" d="M49 0v33q41 0 59.5 4t38 20.5t26.5 56.5t11 102.5t4 168.5v1008q0 104 -4 167.5t-11 103.5t-26.5 55.5t-38 20.5t-59.5 5v33h586v-33q-41 0 -59.5 -5t-39 -21.5t-27.5 -55.5t-11 -102.5t-4 -167.5v-471h614v471q0 86 -2 143t-9 98t-15.5 62.5t-28 33t-36 13.5t-50.5 2v33 h585v-33q-41 0 -59 -5t-37.5 -20.5t-27 -55.5t-11.5 -103.5t-4 -167.5v-1008q0 -106 4 -168.5t11.5 -102.5t27 -56.5t37.5 -20.5t59 -4v-33h-585v33q41 0 59 4t38.5 20.5t28 56.5t11.5 103.5t4 167.5v469h-614v-469q0 -104 4 -167.5t11 -103.5t27.5 -56.5t39 -20.5t59.5 -4 v-33h-586z" />
<glyph unicode="I" horiz-adv-x="679" d="M47 0v33q41 0 59.5 4t38 20.5t26.5 56.5t11 102.5t4 168.5v1008q0 104 -4 167.5t-11 103.5t-26.5 55.5t-38 20.5t-59.5 5v33h586v-33q-33 0 -50.5 -2t-37 -13.5t-27.5 -33t-15 -62.5t-9 -98t-2 -143v-1008q0 -104 4 -167.5t11 -103.5t27.5 -56.5t39 -20.5t59.5 -4v-33 h-586z" />
<glyph unicode="J" horiz-adv-x="667" d="M-180 -225q53 0 94 3t76 13t60.5 21.5t46 36t33.5 47t23.5 63.5t15.5 77t8 97.5t4 114.5t1 137v1008q0 76 -2 127t-5 91t-12 63.5t-17.5 39t-26 21.5t-32.5 8t-44 2v33h584v-33q-41 0 -59.5 -5t-39 -20.5t-26.5 -55.5t-10.5 -103.5t-4.5 -167.5v-1008q0 -188 -32.5 -309 t-113.5 -197t-205 -105.5t-316 -29.5v31z" />
<glyph unicode="K" horiz-adv-x="1466" d="M49 0v33q41 0 59.5 4t38 20.5t26.5 56.5t11 102.5t4 168.5v1008q0 104 -4 167.5t-11 103.5t-26.5 55.5t-38 20.5t-59.5 5v33h586v-33q-33 0 -50.5 -2t-37 -13.5t-27.5 -33t-15 -62.5t-9 -98t-2 -143v-455l290 446q150 235 150 317q0 36 -29 42q-8 2 -16 2v33h522v-33 q-55 0 -95 -6t-92.5 -25.5t-99.5 -56.5t-104 -101.5t-117 -156.5l-239 -369l458 -706q70 -106 110 -159.5t81 -86.5t71.5 -39t90.5 -6v-33h-584v33q41 0 41 42q0 40 -37 118q-53 109 -182 309l-197 301l-22 -37v-381q0 -104 4 -167.5t11 -103.5t27.5 -56.5t39 -20.5t59.5 -4 v-33h-586z" />
<glyph unicode="L" horiz-adv-x="1138" d="M49 0v33q41 0 59.5 4t38 20.5t26.5 56.5t11 102.5t4 168.5v1008q0 104 -4 167.5t-11 103.5t-26.5 55.5t-38 20.5t-59.5 5v33h586v-33q-41 0 -59.5 -5t-39 -21.5t-27.5 -55.5t-11 -102.5t-4 -167.5v-1325h270q311 0 311 489h33v-557h-1059z" />
<glyph unicode="M" horiz-adv-x="1845" d="M47 0v33q41 0 59.5 4t38 20.5t26.5 56.5t11 102.5t4 168.5v1008q0 104 -4 167.5t-11 103.5t-26.5 55.5t-38 20.5t-59.5 5v33h445l430 -1317l432 1317h442v-33q-39 0 -58.5 -5t-40 -21.5t-27.5 -55.5t-11 -102.5t-4 -167.5v-1008q0 -104 4 -167.5t11 -103.5t27.5 -56.5 t40 -20.5t58.5 -4v-33h-586v33q41 0 60.5 4t39 20.5t26.5 56.5t12.5 103.5t5.5 167.5v1020l-467 -1405h-113l-463 1405v-1020q0 -106 4 -168.5t11.5 -102.5t27 -56.5t38 -20.5t59.5 -4v-33h-404z" />
<glyph unicode="N" horiz-adv-x="1488" d="M47 0v33q41 0 59.5 4t38 20.5t26.5 56.5t11 102.5t4 168.5v1008q0 51 -1 92t-3 74.5t-4 59.5t-8 45t-10 32.5t-14.5 23t-17.5 13.5t-22.5 7t-26.5 4t-32 1v33h438l699 -1241v856q0 104 -5 167.5t-12.5 102.5t-27 55.5t-39 21.5t-60.5 5v33h404v-33q-41 0 -59.5 -5 t-38 -20.5t-26.5 -55.5t-11 -103.5t-4 -167.5v-1393h-117l-877 1563v-1178q0 -106 4 -168.5t11.5 -102.5t27 -56.5t38 -20.5t59.5 -4v-33h-404z" />
<glyph unicode="O" horiz-adv-x="1757" d="M59 887q0 246 107.5 457.5t297 338.5t415 127t415 -127t297 -338.5t107.5 -457.5q0 -244 -107.5 -456t-297 -338t-415 -126t-415 126t-297 338t-107.5 456zM365 887q0 -246 63.5 -439.5t181 -303t269.5 -109.5q150 0 267.5 109.5t182 304t64.5 438.5q0 246 -64.5 441.5 t-182.5 305t-267 109.5q-152 0 -269.5 -109.5t-181 -304t-63.5 -442.5z" />
<glyph unicode="P" horiz-adv-x="1372" d="M47 0v33q41 0 59.5 4t38 20.5t26.5 56.5t11 102.5t4 168.5v1008q0 51 -1 92t-3 74.5t-4 59.5t-8 45t-10 32.5t-14.5 23t-17.5 13.5t-22.5 7t-26.5 4t-32 1v33h643q80 0 165 -16.5t174 -54.5t158.5 -93t114 -141.5t44.5 -192.5t-44.5 -193.5t-114 -142.5t-158.5 -93 t-174 -54.5t-165 -16.5h-198v-395q0 -104 4 -167.5t11 -103.5t27.5 -56.5t39 -20.5t59.5 -4v-33h-586zM492 848h198q68 0 126 21.5t111.5 68.5t84 135t30.5 207q0 125 -29.5 214t-82.5 133t-110.5 63.5t-129.5 19.5h-198v-862z" />
<glyph unicode="Q" horiz-adv-x="1765" d="M59 887q0 246 107.5 457.5t297 338.5t415 127t415 -127t297 -338.5t107.5 -457.5q0 -297 -157 -540t-406 -335q88 -86 141 -116q32 -19 67 -19q22 0 46 8q83 31 83 144q0 68 -30 166q90 -43 139 -127q48 -82 48 -165q0 -85 -48 -158q-47 -71 -133 -93q-37 -8 -75 -9h-12 q-31 0 -55 4q-30 5 -63 21.5t-56.5 30.5t-51 42t-45 46t-43 52t-38 51.5t-36.5 50.5q-12 20 -19 28l-2 2q-37 -4 -73 -4q-225 0 -415 126t-297.5 338t-107.5 456zM365 887q0 -264 73.5 -468t206.5 -304q63 76 146 88q21 3 41 3q60 0 111 -26q69 -35 122 -96q152 88 240 302 t88 501q0 246 -64.5 441.5t-182.5 305t-267 109.5q-152 0 -269.5 -109.5t-181 -304t-63.5 -442.5zM647 113q104 -78 232 -78h26q-29 39 -51.5 59.5t-51.5 32.5q-23 9 -48 9q-9 0 -18 -1q-36 -4 -89 -22z" />
<glyph unicode="R" horiz-adv-x="1525" d="M47 0v33q41 0 59.5 4t38 20.5t26.5 56.5t11 102.5t4 168.5v1008q0 104 -4 167.5t-11 103.5t-26.5 55.5t-38 20.5t-59.5 5v33h643q80 0 165 -16.5t174 -54.5t158.5 -93t114 -141.5t44.5 -192.5q0 -94 -36 -175t-95.5 -136.5t-128 -93t-144.5 -58.5l238 -440 q51 -90 78.5 -140.5t59.5 -94.5t49 -61.5t46 -30.5t50.5 -15t64.5 -2v-33h-584v33q58 0 58 55q0 17 -5 39q-20 82 -118 266l-213 387h-174v-395q0 -104 4 -167.5t11 -103.5t27.5 -56.5t39 -20.5t59.5 -4v-33h-586zM492 848h198q68 0 126 21.5t111.5 68.5t84 135t30.5 207 q0 125 -29.5 214t-82.5 133t-110.5 63.5t-129.5 19.5h-198v-862z" />
<glyph unicode="S" horiz-adv-x="1325" d="M72 385q0 53 53 99t131 46t130 -46t52 -99q0 -168 67.5 -260t207.5 -92q154 0 250 85t96 249q0 94 -34 168.5t-91 125t-131 91.5t-156 73.5t-164 65.5t-155.5 74t-131 91t-91 123.5t-33.5 166.5q0 121 65.5 227t184 171.5t262.5 65.5q147 0 288.5 -61t228.5 -156.5 t87 -193.5q0 -25 -14.5 -50.5t-38 -46t-58.5 -34t-71 -13.5q-78 0 -132.5 46.5t-54.5 97.5q0 154 -65.5 249t-192.5 95q-125 0 -200.5 -63.5t-75.5 -188.5q0 -66 27.5 -121t74.5 -94t109.5 -77t133 -66.5t144.5 -64.5t144.5 -70.5t133 -86t109.5 -109t75 -139t28 -180.5 q0 -100 -39 -191t-111 -165t-186.5 -117t-255.5 -43q-256 0 -428 127t-172 291z" />
<glyph unicode="T" horiz-adv-x="1320" d="M29 1219v559h1261v-559h-33q0 491 -310 491h-1h-133v-1329q0 -102 4 -164.5t11.5 -101.5t26.5 -55.5t38.5 -21.5t58.5 -5v-33h-583v33q39 0 58 4t38.5 21.5t27 56.5t11.5 102.5t4 167.5v1325h-135q-311 0 -312 -491h-32z" />
<glyph unicode="U" horiz-adv-x="1423" d="M39 1745v33h586v-33q-41 0 -59.5 -5t-39 -21.5t-27.5 -55.5t-11.5 -102.5t-4.5 -167.5v-895q0 -233 80 -346t230 -113q86 0 151.5 35t103 96t56 138t18.5 165v920q0 104 -5 167.5t-11 103.5t-25.5 55.5t-39 20.5t-60.5 5v33h403v-33q-39 0 -58 -5t-38.5 -20.5t-27 -55.5 t-11.5 -103.5t-4 -167.5v-920q0 -238 -138 -372t-388 -134q-274 0 -407.5 124t-133.5 355v947q0 88 -2 144t-9 97t-15.5 61.5t-27 33t-35.5 14.5t-50 2z" />
<glyph unicode="V" horiz-adv-x="1374" d="M-18 1745v33h583v-33q-33 0 -48 -3t-29.5 -14.5t-16.5 -33t3 -63.5t18.5 -99t39.5 -148l242 -866l248 866q18 68 30.5 116t19.5 87t10 63.5t-1 43t-9 28t-20.5 15.5t-28.5 7t-38 1v33h406v-33q-37 0 -55.5 -2t-42 -13.5t-37 -31t-34 -60.5t-38 -97t-41.5 -144l-391 -1397 h-131l-392 1397q-25 88 -42 145t-37.5 97t-34 59.5t-38 31t-42 13.5t-53.5 2z" />
<glyph unicode="W" horiz-adv-x="2197" d="M-18 1745v33h583v-33q-33 0 -48 -3t-29.5 -14.5t-16.5 -33t3 -63.5t18.5 -99t39.5 -148l242 -866q256 909 262 932q-23 76 -38 123t-33.5 82t-30.5 51t-34.5 25.5t-39 11.5t-51.5 2v33h438l355 -1260l243 866q25 90 39 147.5t18.5 99.5t3.5 63.5t-15.5 33t-31 14.5 t-47.5 3v33h404v-33q-37 0 -55.5 -2t-42 -13.5t-38 -31t-33.5 -59.5t-37.5 -97t-43.5 -145l-389 -1397h-131l-346 1243l-348 -1243h-131l-392 1397q-25 88 -42 145t-37.5 97t-34 59.5t-38 31t-42 13.5t-53.5 2z" />
<glyph unicode="X" horiz-adv-x="1454" d="M-4 0v33q53 0 80.5 7t66.5 41t79 102.5t104 193.5l256 510l-252 502q-63 131 -105.5 201.5t-81.5 105.5t-66.5 42t-80.5 7v33h586v-33q-66 0 -70 -35q-1 -4 -1 -9q0 -74 157 -392l94 -189l131 264q122 244 122 317q0 12 -3 19q-10 25 -70 25v33h404v-33q-53 0 -81 -7 t-67 -41t-79 -102.5t-103 -195.5l-197 -393l318 -633q61 -125 101 -192.5t79 -100.5t66.5 -40t80.5 -7v-33h-585v33q68 0 73 35q1 4 1 9q0 68 -126 316l-188 381l-195 -391q-121 -238 -121 -307q0 -10 3 -17q10 -26 69 -26h4v-33h-403z" />
<glyph unicode="Y" horiz-adv-x="1423" d="M-23 1745v33h586v-33q-68 0 -74 -35q-1 -4 -1 -9q0 -67 122 -317l191 -380l190 380q123 251 123 319q0 9 -2 15q-12 25 -72 27v33h406v-33q-55 0 -83 -7t-65.5 -40t-77.5 -99.5t-102 -191.5l-256 -512v-510q0 -104 5 -167.5t11.5 -103.5t27 -56.5t40 -20.5t58.5 -4v-33 h-586v33q41 0 59.5 4t39 20.5t26.5 56.5t10 102.5t4 168.5v510l-252 510q-63 123 -103 190.5t-79 101.5t-66.5 41t-79.5 7z" />
<glyph unicode="Z" horiz-adv-x="1349" d="M59 0l854 1710h-510q-311 0 -311 -491h-33v559h1172v-31l-840 -1679h563q82 0 142.5 36.5t92.5 88t50 124t22.5 127t4.5 113.5h32v-557h-1239z" />
<glyph unicode="[" horiz-adv-x="491" d="M133 -238v2048h447v-41h-222v-1968h222v-39h-447z" />
<glyph unicode="\" horiz-adv-x="784" d="M59 1810h121l541 -1843h-121z" />
<glyph unicode="]" horiz-adv-x="491" d="M-88 -199h221v1968h-221v41h446v-2048h-446v39z" />
<glyph unicode="^" horiz-adv-x="1384" d="M59 999l631 816l635 -816h-125l-510 588l-510 -588h-121z" />
<glyph unicode="_" horiz-adv-x="874" d="M29 8h817v-41h-817v41z" />
<glyph unicode="`" horiz-adv-x="403" d="M33 1812h217l82 -231h-109z" />
<glyph unicode="a" horiz-adv-x="1320" d="M63 352q0 127 58.5 244t145.5 199t197.5 149.5t201 104t172.5 59.5q-4 72 -7.5 117t-11.5 96t-20.5 80t-34 48t-51.5 19q-90 0 -219 -109.5t-230 -316.5l-149 218q166 123 336 199.5t290 76.5q113 0 194 -31.5t125 -92t63.5 -135.5t19.5 -171v-721q0 -76 2 -127t5 -91 t12 -63.5t17.5 -39t27 -21.5t32.5 -8t43 -2v-33h-203q-168 0 -225 72q-31 -35 -153.5 -70t-233.5 -35q-182 0 -293 108.5t-111 276.5zM369 387q0 -154 64.5 -249t162.5 -95q138 0 244 137v848q-68 -18 -130.5 -49t-126 -84t-110.5 -120.5t-75.5 -168t-28.5 -219.5z" />
<glyph unicode="b" horiz-adv-x="1396" d="M-12 1735v32l444 115v-483q41 43 146.5 90t209.5 47q139 0 245 -63.5t167.5 -172t92 -242.5t30.5 -290q0 -119 -27.5 -235.5t-83 -218t-131 -179.5t-175 -123t-212.5 -45q-211 0 -368 160l-95 -127h-104v1513v68q0 53 1 74.5t-5 48.5t-11.5 32t-25.5 9t-38.5 1t-59.5 -11 zM432 682q0 -154 12.5 -268.5t41 -211t80.5 -145.5t128 -49q80 0 143.5 62.5t102.5 169t59.5 241.5t20.5 287q0 326 -88 509t-213 183q-61 0 -143 -52t-144 -122v-604z" />
<glyph unicode="c" horiz-adv-x="1292" d="M63 727q0 174 63.5 328.5t164 257t223.5 163t242 60.5q190 0 306 -86t118 -182q0 -55 -21.5 -93t-61.5 -57.5t-96 -19.5q-163 0 -163 172q0 121 -18.5 159.5t-63.5 38.5q-72 0 -139.5 -45t-124 -131t-90 -227t-33.5 -315q0 -147 26.5 -275.5t80.5 -231t145.5 -160.5 t209.5 -58q160 0 361 254l74 -62q-84 -109 -215 -179.5t-295 -70.5q-199 0 -359.5 107.5t-247 281.5t-86.5 371z" />
<glyph unicode="d" horiz-adv-x="1464" d="M74 750q0 154 33.5 292t99 250.5t174 178t246.5 65.5q102 0 198.5 -39t155.5 -80v96v66q2 55 2 76.5t-6 48.5t-11 32t-25.5 9t-39 1t-61.5 -11v32l446 115v-1497q0 -106 4 -168.5t11.5 -102.5t27 -56.5t37.5 -20.5t59 -4v-33h-202q-23 0 -42.5 1t-33.5 5t-26.5 7t-23 9.5 t-15.5 9.5t-12 11t-9 10t-8 11l-6 10q-123 -106 -330 -107q-285 0 -464 210t-179 573zM379 702q0 -342 86 -518t252 -176q76 0 128 48t80.5 143.5t41 208t14.5 266.5v612q-61 70 -141 122t-140 52q-123 0 -222 -215t-99 -543z" />
<glyph unicode="e" horiz-adv-x="1308" d="M61 702q0 172 63.5 331t164 267.5t223.5 172t242 63.5q190 0 331.5 -101.5t141.5 -263.5q0 -96 -62.5 -177t-158 -134t-214 -92t-227 -56.5t-198.5 -19.5q0 -113 27.5 -226.5t81.5 -213.5t146.5 -163.5t206.5 -63.5q162 0 361 254l74 -62q-203 -250 -510 -250 q-182 0 -343 100.5t-255.5 270.5t-94.5 364zM367 735q135 4 261 63.5t211 172t85 248.5q0 133 -50 203.5t-120 70.5q-102 0 -193.5 -110.5t-142.5 -285.5t-51 -362z" />
<glyph unicode="f" horiz-adv-x="960" d="M49 0v33q41 0 59.5 4t38 20.5t26.5 56.5t11 102.5t4 168.5v983h-139v41h141q14 197 128 299t294 102q51 0 110.5 -9t130.5 -30.5t117 -68.5t46 -113q0 -53 -54.5 -98t-132.5 -45q-76 0 -129 45t-53 98q0 8 1 26.5t1 33v34t-2 34t-6 26.5t-11 19t-18 7q-66 0 -91 -85 t-27 -275h163v-41h-163v-987q0 -104 4 -166.5t11 -101.5t27.5 -55.5t39 -20.5t59.5 -4v-33h-586z" />
<glyph unicode="g" horiz-adv-x="1404" d="M80 253q0 83 62.5 151.5t189.5 148.5q-121 82 -186.5 195.5t-65.5 240.5q0 219 185.5 383t445.5 164h61q12 131 112.5 231.5t262.5 100.5h-21q86 0 136.5 -34t50.5 -100.5t-50.5 -100.5t-136.5 -34q-31 0 -72.5 1.5t-65 2.5t-51.5 0t-43 -5.5t-29.5 -12.5t-21.5 -22.5 t-9 -34.5q225 -41 366 -193.5t141 -345.5q0 -219 -184 -382t-446 -163q-98 0 -193.5 24t-148.5 58q-14 -10 -30.5 -61t-16.5 -100.5t60 -78t158.5 -44t216 -29.5t235.5 -41t216.5 -70t160 -127t61.5 -200q0 -205 -189.5 -352.5t-488.5 -147.5q-162 0 -316.5 47t-255 132 t-100.5 181q0 59 45 108.5t123 55.5q11 1 22 1q65 0 116 -40q60 -47 60 -104q0 -92 30 -158.5t81 -102.5t112.5 -52.5t137.5 -16.5t148.5 22.5t132 63.5t96.5 105.5t37 140.5q0 106 -62.5 176t-164 101.5t-222.5 48t-242.5 30t-223 35t-164 71.5t-62.5 133zM385 989 q0 -111 21.5 -200t63.5 -150t103.5 -94t137.5 -33q154 0 240.5 127t86.5 350t-87 352t-240.5 129t-239.5 -129t-86 -352z" />
<glyph unicode="h" horiz-adv-x="1396" d="M39 0v33q41 0 59.5 4t38 20.5t26.5 56.5t11 102.5t4 168.5v1128v68q0 53 1 74.5t-5 48.5t-11 32t-25.5 9t-39 1t-59.5 -11v32l444 115v-493q2 6 14.5 19t41 36.5t62.5 43t86 34t108 14.5q188 0 307 -115.5t119 -333.5v-702q0 -104 4 -167.5t11 -103.5t27.5 -56.5 t40 -20.5t58.5 -4v-33h-586v33q41 0 60.5 4t39 20.5t26.5 56.5t12.5 103.5t5.5 167.5v702q0 203 -46.5 287t-140.5 84q-72 0 -140.5 -59.5t-109.5 -145.5v-868q0 -104 4.5 -167.5t11.5 -103.5t27.5 -56.5t39 -20.5t59.5 -4v-33h-586z" />
<glyph unicode="i" horiz-adv-x="669" d="M47 0v33q41 0 59.5 4t38 20.5t26.5 56.5t11 102.5t4 168.5v764v65q0 55 1 77t-5 48.5t-11 31.5t-25.5 9t-39 0t-59.5 -12v35l445 113v-1131q0 -104 4 -167.5t11 -103.5t27.5 -56.5t39 -20.5t59.5 -4v-33h-586zM152 1757q-3 17 -3 33q-1 50 27 98q36 62 113 84q25 7 50 7 q53 -1 101 -33q72 -48 86 -117q4 -19 4 -37q0 -49 -28 -94q-38 -61 -115 -86q-23 -6 -45 -6q-54 0 -104 34q-72 48 -86 117z" />
<glyph unicode="j" horiz-adv-x="612" d="M-180 -225q74 0 129 11t94 29.5t64.5 54.5t41 69.5t22.5 91t9 106.5t2 127v885v65v26q0 111 -16 128q-8 10 -38 10q-31 0 -85 -10v35l444 113v-1252q0 -291 -147 -405.5t-520 -114.5v31zM137 1757q-4 18 -4 36q0 49 28 95q38 62 113 84q23 7 46 7q17 0 34 -4 q39 -9 72 -29.5t56.5 -52t29.5 -64.5q4 -18 4 -37q0 -48 -28 -93q-37 -62 -115 -87q-23 -6 -45 -6q-54 0 -106 34q-72 48 -85 117z" />
<glyph unicode="k" horiz-adv-x="1370" d="M37 -4v33q41 0 59.5 4t39 20.5t27.5 56.5t11 103t4 170v1130v66q2 55 2 76.5t-6 48.5t-11 32t-25.5 9t-39 1t-61.5 -11v32l446 115v-995l142 221q152 235 152 316q0 38 -34 42q-6 2 -12 2v33h522v-33q-70 0 -120 -10t-114.5 -44t-132 -105.5t-138.5 -186.5l-93 -139 l-32 -49l391 -606q72 -111 112.5 -166.5t81.5 -88t74 -38.5t90 -6v-33h-436l-453 721v-334q0 -106 4.5 -169.5t11.5 -103.5t26.5 -56.5t38 -20.5t59.5 -4v-33h-586z" />
<glyph unicode="l" horiz-adv-x="661" d="M39 0v33q41 0 59.5 4t38 20.5t26.5 56.5t11 102.5t4 168.5v1128v68q0 53 1 74.5t-5 48.5t-11 32t-25.5 9t-39 1t-59.5 -11v32l444 115v-1497q0 -104 4.5 -167.5t11.5 -103.5t27.5 -56.5t39 -20.5t59.5 -4v-33h-586z" />
<glyph unicode="m" horiz-adv-x="1984" d="M49 0v33q41 0 59.5 4t38 20.5t26.5 56.5t11 102.5t4 168.5v764v65q0 55 1 77t-5 48.5t-11 31.5t-25.5 9t-39 0t-59.5 -12v35l445 113v-101q2 0 16 11.5t22.5 16.5t25.5 17.5t30.5 18.5t33 16t38 16.5t39 12.5t43 9t44.5 3q115 0 210.5 -56.5t107.5 -97.5 q39 53 141.5 103.5t198.5 50.5q170 0 266 -118t96 -331v-702q0 -88 2 -145.5t9.5 -98.5t15.5 -61.5t27.5 -31.5t36 -13t51.5 -2v-33h-586v33q41 0 59.5 4t38 20.5t26.5 56.5t11 102.5t4 168.5v702q0 371 -141 371q-98 0 -217 -188q6 -57 6 -94v-795q2 -106 7 -166.5 t12.5 -100.5t26.5 -56.5t37.5 -20.5t59.5 -4v-33h-585v33q39 0 58 4t38.5 20.5t26 56.5t11.5 102.5t5 168.5v702q0 100 -13.5 176t-34 116t-44 59.5t-47.5 19.5q-94 0 -213 -172v-901q0 -104 4 -167.5t11 -103.5t27.5 -56.5t39 -20.5t59.5 -4v-33h-586z" />
<glyph unicode="n" horiz-adv-x="1468" d="M47 0v33q41 0 59.5 4t38 20.5t26.5 56.5t11 102.5t4 168.5v764v65q0 55 1 77t-5 48.5t-11 31.5t-25.5 9t-39 0t-59.5 -12v35l445 113v-95q23 27 135 71t209 44q195 0 325.5 -115.5t130.5 -333.5v-702q0 -104 4 -167.5t11.5 -103.5t28 -56.5t39 -20.5t59.5 -4v-33h-586v33 q41 0 59.5 4t38 20.5t26.5 56.5t11 102.5t4 168.5v702q0 371 -201 371q-160 0 -294 -178v-895q0 -104 4 -167.5t11 -103.5t27.5 -56.5t39 -20.5t59.5 -4v-33h-586z" />
<glyph unicode="o" horiz-adv-x="1499" d="M66 751q0 210 86 389t243.5 287.5t354.5 108.5q195 0 353.5 -108.5t243.5 -287.5t85 -389t-86 -389.5t-244 -287t-352 -107.5q-197 0 -354.5 107.5t-243.5 287t-86 389.5zM371 750.5q0 -322.5 100.5 -520t278.5 -197.5q117 0 202.5 91t130.5 253t45 373q0 324 -101 521 t-277 197q-178 0 -278.5 -197.5t-100.5 -520z" />
<glyph unicode="p" horiz-adv-x="1474" d="M43 -414q41 0 59.5 4t38 20.5t26.5 56.5t11 103.5t4 168.5v1210v65q0 55 1 77t-5 48.5t-11 31.5t-25.5 9t-39 0t-59.5 -12v35l444 113v-99q51 35 90 56.5t108.5 42t143.5 20.5q137 0 249 -63.5t182.5 -171t108.5 -244.5t38 -289q0 -199 -84 -382t-237.5 -301t-335.5 -118 q-119 0 -263 43v-71q0 -104 4.5 -168t11.5 -104t27.5 -56.5t39 -20.5t59.5 -4v-32h-586v32zM487 682q0 -154 12.5 -264.5t41 -201.5t81 -137t128.5 -46q109 0 189.5 101.5t121.5 267t41 366.5q0 166 -31 301t-82 218t-111.5 128t-121.5 45q-109 0 -269 -174v-604z" />
<glyph unicode="q" horiz-adv-x="1427" d="M68 750q0 154 37.5 293t107.5 249.5t182.5 177t249.5 66.5q117 0 212 -44t206 -161l133 170h104v-1628q0 -25 -2 -68v-74.5t6.5 -48t11.5 -31.5t24.5 -9t38 -1t61.5 11v-33l-445 -113v498q-135 -37 -264 -37q-182 0 -336.5 114t-240.5 293t-86 376zM373 750 q0 -74 6 -144.5t18.5 -135t30.5 -122t41 -105.5t51.5 -87t61 -66t70.5 -42t79 -15q61 0 108.5 31.5t76 86t47 138.5t25.5 178t7 215v588q-61 82 -137 136t-139 54q-131 0 -238.5 -193.5t-107.5 -516.5z" />
<glyph unicode="r" horiz-adv-x="1058" d="M47 -4v33q59 0 88 16q33 20 43 92q10 63 10 246v831q1 23 1 43q0 89 -15 111q-12 14 -43.5 14t-83.5 -14v35l447 113v-138q70 68 141 111q78 47 160 47q55 0 111.5 -22.5t99.5 -67.5q41 -45 41 -113q0 -82 -62 -139q-55 -55 -151 -55h-13q-80 4 -123 65q-25 38 -25 84 q0 30 11 64q6 20 10 34.5t5 25.5t-2 15.5t-11 4.5q-31 0 -96.5 -50.5t-95.5 -93.5v-905q0 -166 12 -246q12 -78 41 -92q29 -16 86 -16v-33h-586z" />
<glyph unicode="s" horiz-adv-x="1226" d="M74 299q0 59 53 107.5t131 48.5t130 -49.5t52 -106.5q0 -119 65.5 -191.5t186.5 -72.5q123 0 196 66.5t73 179.5q0 90 -49.5 160.5t-127 115.5t-172 86t-189.5 83t-173 92t-127 128t-49 176q0 162 135 288t344 126q80 0 170 -17.5t176 -52t141.5 -97t55.5 -142.5 q0 -37 -23.5 -72t-66.5 -58.5t-95 -23.5q-51 0 -94 23.5t-66.5 58.5t-23.5 72q0 80 -28.5 136t-74.5 80.5t-104 24.5q-102 0 -162.5 -59.5t-60.5 -163.5q0 -78 47 -139.5t124 -103t169 -80.5t184 -84t168 -101.5t124 -144.5t48 -201q0 -164 -133 -294t-336 -130 q-162 0 -308 52.5t-228 128t-82 151.5z" />
<glyph unicode="t" horiz-adv-x="802" d="M35 1493v33q66 0 138.5 28.5t133 74.5t100 110.5t39.5 128.5h33v-332h164v-43h-164q0 -217 1 -633t1 -452v-80q2 -96 4 -135t10.5 -82t26 -55.5t47.5 -12.5q52 1 189 107l43 -58q-68 -57 -159 -91t-173 -34q-78 0 -130 17.5t-85 49.5t-50.5 90t-23.5 122.5t-6 167.5v1079 h-139z" />
<glyph unicode="u" horiz-adv-x="1466" d="M37 1368v35l444 113v-1102q0 -201 51.5 -286t147.5 -85q150 0 299 178v928q0 25 2 65v77t-6 47.5t-11.5 30.5t-25.5 10t-38.5 1t-61.5 -12v35l444 113v-1162v-59q0 -57 -1 -79.5t5 -50.5t11.5 -33t25.5 -8t37.5 0t62.5 13v-35l-444 -116v98q-18 -23 -132 -70t-212 -47 q-123 0 -224.5 47t-168 150.5t-66.5 249.5v735v65q0 55 1 77t-5 48.5t-11 31.5t-25.5 9t-39 0t-59.5 -12z" />
<glyph unicode="v" horiz-adv-x="1234" d="M-10 1468v33h583v-33q-33 0 -48 -2t-29.5 -14t-16.5 -33.5t3 -63.5t18.5 -100.5t40.5 -148.5l166 -588l165 588q25 90 40.5 148.5t19.5 100.5t3 63.5t-16.5 33.5t-31 14t-47.5 2v33h403v-33q-33 0 -48 -2t-37.5 -7t-35 -19.5t-29 -38t-29.5 -62.5t-29.5 -90t-39.5 -127 l-313 -1122h-129l-315 1126q-25 86 -42.5 142.5t-38 95.5t-33.5 59.5t-38 30.5t-42 12t-54 2z" />
<glyph unicode="w" horiz-adv-x="1904" d="M-10 1468v33h583v-33q-33 0 -48 -2t-29.5 -14t-16.5 -33.5t3 -63.5t18.5 -100.5t40.5 -148.5l166 -588l165 588q2 8 5.5 17.5t4.5 17.5t4 18t3 17q-18 63 -33.5 106t-28 77t-28 53.5t-26.5 31.5t-31.5 16t-36 6t-46.5 2v33h584v-33q-33 0 -48 -2t-30.5 -14t-16.5 -33.5 t3 -63.5t18.5 -100.5t38.5 -148.5l168 -588l166 588q18 68 30.5 116t21 88t11.5 64.5t-1.5 43t-9.5 27.5t-19 15t-28.5 7t-39.5 1v33h408v-33q-39 0 -56.5 -2t-42 -12t-38 -29.5t-33 -60.5t-37.5 -96.5t-43 -141.5l-313 -1126h-129l-273 967l-268 -967h-129l-315 1126 q-25 86 -42.5 142.5t-38 95.5t-33.5 59.5t-38 30.5t-42 12t-54 2z" />
<glyph unicode="x" horiz-adv-x="1337" d="M4 0v33q53 0 81 6t65.5 40t77.5 101.5t104 192.5l192 377l-192 378q-63 125 -103.5 193t-78 100.5t-65.5 39.5t-81 7v33h586v-33q-63 0 -70 -34q-1 -4 -1 -10q0 -78 157 -388v-2l29 -51l57 119q125 255 125 323q0 9 -2 15q-10 28 -68 28h-4v33h406v-33q-55 0 -82 -7 t-66 -39.5t-79 -100.5t-101 -193l-129 -258l244 -487q63 -129 104 -198.5t81 -103.5t66.5 -41t79.5 -7v-33h-585v33q68 0 73 35v7q0 67 -125 322l-120 240l-119 -240q-128 -250 -128 -322q0 -11 3 -18q12 -24 67 -24h5v-33h-404z" />
<glyph unicode="y" horiz-adv-x="1236" d="M-37 -295q0 53 53.5 99t130.5 46q78 0 130.5 -46t52.5 -99q0 -37 4 -71.5t9 -51t7 -16.5q49 0 107.5 128t105.5 306h-10l-313 1126q-25 86 -43.5 141.5t-38 96.5t-32.5 60.5t-38 29.5t-42 12t-54 2v33h586v-33q-25 0 -38.5 -1t-28.5 -7t-20.5 -15t-9.5 -27.5t-1 -43 t10.5 -64.5t19.5 -88t31 -116l168 -588l168 588q18 68 30.5 116t19.5 88t10 64.5t-1 43t-9 27.5t-20.5 15t-29 7t-37.5 1v33h405v-33q-37 0 -54 -2t-42 -12t-38 -29.5t-32.5 -60.5t-38 -96.5t-43.5 -141.5l-311 -1112q-31 -104 -56.5 -178t-63.5 -146.5t-82 -116.5 t-104.5 -70.5t-135.5 -26.5q-123 0 -202 65.5t-79 163.5z" />
<glyph unicode="z" horiz-adv-x="1173" d="M51 0l731 1460h-338q-70 0 -124 -25.5t-85.5 -72.5t-54 -98.5t-32 -116t-12.5 -109.5t-3 -96h-33v559h985v-28l-714 -1432h391q68 0 122 25.5t87 72.5t54.5 98.5t31.5 115t13 109.5t3 95h33v-557h-1055z" />
<glyph unicode="{" horiz-adv-x="692" d="M117 885v8q82 14 114.5 35.5t32.5 62.5q0 63 -59.5 289.5t-59.5 314.5q0 162 148.5 267.5t421.5 105.5v-41q-240 0 -240 -192q0 -98 46 -322.5t46 -282.5q0 -82 -85 -149.5t-201 -93.5q117 -25 201.5 -91.5t84.5 -148.5q0 -59 -46 -282.5t-46 -321.5q0 -193 240 -193v-40 q-272 0 -421 105t-149 267q0 88 59.5 314.5t59.5 289.5q0 41 -32.5 61.5t-114.5 37.5z" />
<glyph unicode="|" horiz-adv-x="389" d="M133 -190v2000h121v-2000h-121z" />
<glyph unicode="}" horiz-adv-x="694" d="M-23 -150q242 0 242 193q0 100 -48 323.5t-48 280.5q0 80 86 147.5t203 92.5q-76 18 -140.5 52t-106.5 85t-42 106t48 279.5t48 325.5q0 193 -242 192v41q272 0 420 -105.5t148 -267.5q0 -88 -58.5 -314t-58.5 -290q0 -41 33 -61.5t114 -34.5v-12q-82 -14 -114.5 -35 t-32.5 -62q0 -63 58.5 -289.5t58.5 -314.5q0 -162 -147.5 -267t-420.5 -105v40z" />
<glyph unicode="~" horiz-adv-x="1150" d="M78 633q0 76 70.5 142.5t185.5 68.5q86 0 201.5 -34t217 -66.5t154.5 -32.5q27 0 34 10t7 55h121q0 -90 -57.5 -149.5t-180.5 -59.5q-88 0 -211.5 33t-231 66.5t-150.5 33.5q-39 0 -39 -67h-121z" />
<glyph unicode="&#xa1;" horiz-adv-x="589" d="M111 1300.5q0 53.5 53 99.5t131 46t130 -46t52 -99.5t-52 -97.5t-130 -44t-131 44t-53 97.5zM125 -233l106 1343q25 23 64 23q18 0 32.5 -5.5t22.5 -11.5l6 -6l109 -1343q2 -47 -47 -90.5t-123 -43.5t-124 43t-46 91z" />
<glyph unicode="&#xa2;" horiz-adv-x="1392" d="M104 891q0 121 32 229.5t86 190.5t124 145.5t145.5 101t153.5 52.5v168h123v-148h29q172 0 304 -74.5t132 -179.5q0 -86 -45 -135t-125 -49q-82 0 -133 52t-51 138q0 109 -19.5 157t-62.5 48q-8 0 -17.5 -1t-11.5 -1v-1300q53 -29 113 -29q78 0 154.5 51t178.5 207 l86 -57q-55 -86 -124.5 -151.5t-170 -112t-208.5 -46.5h-29v-147h-123v168q-221 41 -381 251t-160 472zM463 977q0 -205 61.5 -385t120.5 -223v1177q-66 -25 -124 -183.5t-58 -385.5z" />
<glyph unicode="&#xa3;" horiz-adv-x="1212" d="M123 0v217q59 12 89 87t30 157q0 115 -45 424h-74v41h65q-6 51 -21 152.5t-22.5 153.5t-14.5 113.5t-7 94.5q0 160 161.5 265t436.5 105v-41q-240 0 -240 -192q0 -61 13.5 -173t37 -267.5t29.5 -210.5h213v-41h-207q6 -72 6 -109q0 -63 -10 -128.5t-27.5 -124t-43 -111 t-54 -91t-61.5 -64.5t-66 -34h406q86 0 144.5 6.5t92 15.5t50 27.5t20.5 37.5t4 52h115v-362h-1020z" />
<glyph unicode="&#xa4;" horiz-adv-x="1343" d="M109 385l145 147q-127 166 -127 359q0 188 127 354l-145 148l57 57l143 -139q43 49 146.5 92t215 43t215 -43t148.5 -92l142 139l59 -57l-150 -148q129 -159 129 -356q0 -199 -129 -357l150 -147l-59 -57l-142 139q-20 -23 -56 -45.5t-83 -43t-106.5 -33.5t-116.5 -13 q-113 0 -216.5 43t-146.5 92l-143 -139zM432 891q0 -156 24.5 -270.5t79 -183t136.5 -68.5q119 0 178 141t59 381q0 236 -59 377t-178 141q-121 0 -180.5 -141.5t-59.5 -376.5z" />
<glyph unicode="&#xa5;" horiz-adv-x="1734" d="M133 1745v33h586v-33q-68 0 -74 -35q-8 -59 121 -326l190 -380l191 380q139 283 121 334q-12 25 -72 27v33h406v-33q-37 0 -57.5 -3t-48.5 -16.5t-50.5 -38t-55 -72.5t-69.5 -118t-90 -174l-213 -430h237v-41h-237v-180h237v-41h-237v-246q0 -104 5 -167.5t11 -103.5 t26.5 -56.5t40 -20.5t58.5 -4v-33h-586v33q41 0 59.5 4t39 20.5t27 56.5t10.5 102.5t4 168.5v246h-168v41h168v180h-168v41h172l-256 512q-63 123 -103.5 190.5t-79 101.5t-66.5 41t-79 7z" />
<glyph unicode="&#xa6;" horiz-adv-x="380" d="M129 -190v872h121v-872h-121zM129 938v872h121v-872h-121z" />
<glyph unicode="&#xa7;" horiz-adv-x="1206" d="M121 168q0 45 48 86t120 41q68 0 117 -41t49 -86q0 -104 49 -172t147 -68q96 0 144.5 59.5t48.5 153.5q0 57 -24.5 104.5t-66.5 82t-96.5 64.5t-115 56.5t-120 53t-113.5 60.5t-96 72t-66.5 93t-24.5 119q0 66 29.5 127t89 111.5t139.5 76.5q-121 61 -189.5 135 t-68.5 174q0 131 119.5 235.5t306.5 104.5q72 0 149.5 -14t154.5 -43t126 -81t49 -118q0 -45 -49 -86t-119 -41q-45 0 -84 20.5t-59.5 49.5t-20.5 57q0 106 -39 164t-108 58q-84 0 -133 -51.5t-49 -143.5q0 -63 39.5 -113.5t103 -84t140.5 -66.5t154 -71t141.5 -84 t104 -119.5t39.5 -168t-51 -177.5t-151 -134q203 -129 202 -311q0 -66 -26.5 -128.5t-76.5 -115.5t-137 -85t-196 -32q-217 0 -373.5 89.5t-156.5 187.5zM365 958q0 -57 26.5 -103t77.5 -80t100 -57.5t121 -55t113 -54.5q12 12 26.5 60.5t14.5 97.5q0 39 -10.5 73.5 t-26.5 60.5t-44 52.5t-51.5 43t-62.5 38t-65.5 32.5t-70.5 31.5t-69 30.5q-29 -10 -54 -57t-25 -113z" />
<glyph unicode="&#xa8;" horiz-adv-x="796" d="M74 1698q0 41 45.5 77.5t111.5 36.5q33 0 63 -11t50.5 -27.5t32.5 -37t12 -38.5q0 -27 -20.5 -53.5t-57.5 -45t-80 -18.5q-66 0 -111.5 37t-45.5 80zM412 1698q0 27 18.5 52.5t56 43.5t80.5 18q66 0 111 -36.5t45 -77.5q0 -43 -45 -80t-111 -37q-43 0 -80.5 18.5t-56 45 t-18.5 53.5z" />
<glyph unicode="&#xa9;" horiz-adv-x="2037" d="M106 1110q0 174 72 334t193 278.5t291 189t354 70.5q188 0 358 -70.5t291 -189t192.5 -278.5t71.5 -334q0 -137 -45 -268t-129 -238.5t-196.5 -189.5t-252 -127t-290.5 -45q-184 0 -354 70.5t-291 188t-193 277.5t-72 332zM332 1110q0 -236 82 -422t238.5 -296.5 t363.5 -110.5q158 0 288 64.5t217 175t135 263t48 326.5q0 238 -82 425t-239.5 297t-366.5 110q-207 0 -363.5 -110t-238.5 -297t-82 -425zM510 1110q0 176 78 329.5t218 246t306 92.5q92 0 161.5 -24.5t107.5 -62.5t57.5 -76t19.5 -75q0 -68 -41 -106.5t-106 -38.5 q-61 0 -103.5 40t-42.5 93q0 29 4.5 67.5t6.5 61t-1.5 45t-18.5 33t-44 10.5q-76 0 -137.5 -50t-100 -134t-60 -186.5t-21.5 -213.5q0 -172 51 -319.5t127 -230.5t157 -91q90 -10 163 42t136 177l93 -49q-57 -109 -166 -176.5t-242 -67.5q-166 0 -306 92.5t-218 245 t-78 326.5z" />
<glyph unicode="&#xaa;" horiz-adv-x="880" d="M96 1090q0 61 32 117.5t79 96t105.5 72.5t103.5 51.5t82 28.5q-8 141 -37 141q-33 0 -92.5 -62t-120.5 -192l-96 142q51 39 108 69.5t113.5 49t99.5 18.5q102 0 175 -59.5t73 -159.5v-297v-19q-2 -113 6 -131t57 -18h4v-20h-120q-117 0 -164 38q-68 -57 -162 -57 q-100 0 -173 52.5t-73 138.5zM317 1090q0 -74 21.5 -111t54.5 -37q55 0 107 84q-2 336 -2 395q-72 -33 -126.5 -118.5t-54.5 -212.5z" />
<glyph unicode="&#xab;" horiz-adv-x="1005" d="M80 707l467 561h108l-364 -561l364 -562h-108zM342 707l467 561h109l-365 -561l365 -562h-109z" />
<glyph unicode="&#xac;" horiz-adv-x="1738" d="M133 1118v43h1491v-1016h-223v973h-1268z" />
<glyph unicode="&#xad;" horiz-adv-x="0" />
<glyph unicode="&#xae;" horiz-adv-x="1386" d="M100 1442q0 223 174.5 387t420 164t417.5 -164t172 -387t-172 -388t-419 -165t-420 165t-173 388zM274 1442q0 -229 115 -375.5t304.5 -146.5t303 146t113.5 376q0 229 -113.5 375.5t-303 146.5t-304.5 -146.5t-115 -375.5zM379 1106v20h4q37 0 42 9.5t5 70.5v15.5v14.5 v19v375q0 109 -4 117q-10 10 -47 10v21h287q57 0 117.5 -18.5t108.5 -64.5t48 -108q0 -63 -48 -109t-108 -61l95 -172q51 -96 63 -107.5t66 -11.5v-20h-297v20q43 0 -2 97q-8 18 -21 39l-67 124v-131q0 -111 4 -118q6 -10 49 -11v-20h-295zM621 1419h45q33 0 58.5 45 t25.5 123q0 53 -13.5 92t-32 57.5t-38.5 18.5h-45v-336z" />
<glyph unicode="&#xaf;" horiz-adv-x="651" d="M51 1737v41h547v-41h-547z" />
<glyph unicode="&#xb0;" horiz-adv-x="546" d="M78 1698q0 57 56 106t138 49t139.5 -49t57.5 -106t-57.5 -107.5t-139.5 -50.5t-138 50t-56 108zM199 1698q0 -53 22.5 -84t52 -31t51 31t21.5 84q0 51 -22.5 81.5t-51 30.5t-51 -30.5t-22.5 -81.5z" />
<glyph unicode="&#xb1;" horiz-adv-x="1185" d="M96 0v145h991v-145h-991zM96 633v143h434v424h123v-424h434v-143h-434v-422h-123v422h-434z" />
<glyph unicode="&#xb2;" horiz-adv-x="759" d="M102 961v137q0 96 20.5 166.5t54.5 110.5t75 66.5t81 44t73.5 35t55 46t21.5 71.5q0 53 -21.5 83t-51.5 30q-63 0 -64 -123q0 -25 -33.5 -49.5t-81 -24.5t-81 25t-33.5 49q0 55 84 102.5t190 47.5q94 0 170 -59.5t76 -139.5q0 -63 -32 -113.5t-79 -79t-103 -58.5 t-103.5 -55.5t-79 -69.5t-31.5 -101h297q90 0 110.5 13.5t20.5 58.5h20v-213h-555z" />
<glyph unicode="&#xb3;" horiz-adv-x="792" d="M98 1094q0 23 34 47t81 24t82 -24.5t35 -46.5q0 -41 5 -69t13 -41t19 -13q47 0 76.5 85t21.5 187q-4 92 -43 126t-146 -3l3 33q66 33 106.5 94t40.5 141q0 45 -11.5 81t-31.5 36q-12 0 -23.5 -12.5t-20.5 -41t-9 -67.5q0 -25 -35 -50.5t-83 -25.5t-81 25t-33 51 q0 47 52.5 82t117 50.5t121.5 15.5q84 0 144.5 -23.5t88 -57.5t27.5 -75q0 -45 -28.5 -80t-60.5 -50t-69.5 -29.5t-44.5 -16.5q78 16 159 -39t87 -147q8 -111 -96 -214.5t-262 -101.5q-90 0 -163 44t-73 106z" />
<glyph unicode="&#xb4;" horiz-adv-x="403" d="M70 1581l82 231h217l-191 -231h-108z" />
<glyph unicode="&#xb5;" horiz-adv-x="1585" d="M98 1368v35l445 113v-1129q4 -188 55 -266t143 -78q154 0 299 178v928q0 25 2 65v77t-6 47.5t-11 30.5t-25.5 10t-39 1t-61.5 -12v35l444 113v-1162v-59q0 -57 -1 -81t5.5 -50.5t11.5 -31.5t26.5 -10t39 -1t60.5 10v-33l-445 -112v98q-18 -23 -131.5 -70t-212.5 -47 q-31 0 -67.5 3t-60 7.5t-25.5 4.5v10v-10v-2q0 -18 -2 -54v-74.5t6 -47t11 -30.5t25.5 -10.5t39 -1t61.5 12.5v-33l-446 -115v1522v65q0 55 1 77t-5.5 48.5t-11.5 31.5t-25.5 9t-39 0t-59.5 -12zM543 -18v-2v2z" />
<glyph unicode="&#xb6;" horiz-adv-x="1183" d="M92 1272q0 141 76 265t210 198.5t292 74.5h381v-1810h-121v1769h-180v-1769h-125v735q-137 0 -260 75t-198 200t-75 262z" />
<glyph unicode="&#xb7;" horiz-adv-x="528" d="M80 905q0 53 53 98.5t131 45.5t130 -45.5t52 -98.5q0 -33 -22.5 -65.5t-65.5 -54t-94 -21.5q-78 0 -131 44t-53 97z" />
<glyph unicode="&#xb8;" horiz-adv-x="245" d="M-223 -416q0 12 12 25.5t36.5 24t52.5 10.5t52.5 -10.5t35.5 -23.5t11 -26q0 -31 4.5 -54.5t9.5 -32.5t9 -9q31 0 52.5 67.5t15.5 147.5q-2 37 -8.5 59.5t-21.5 37t-44 13.5t-76 -16v31q115 53 117 184h172q6 -29 -2 -52t-27.5 -38.5t-38 -26t-37 -17.5t-20.5 -7 q49 12 114.5 -36t69.5 -118q6 -86 -80 -167.5t-215 -81.5q-74 0 -134 34.5t-60 81.5z" />
<glyph unicode="&#xb9;" horiz-adv-x="561" d="M98 961v22q53 0 62.5 19.5t9.5 136.5v16v442q0 31 4 70q2 35 -5 40t-56 -3q-10 -2 -15 -2v22l295 66v-635v-16q0 -117 8.5 -136.5t61.5 -19.5v-22h-365z" />
<glyph unicode="&#xba;" horiz-adv-x="948" d="M96 1072.5q0 148.5 109.5 261t267.5 112.5q80 0 150.5 -32t120 -83t79 -118.5t29.5 -139.5q0 -150 -109.5 -261.5t-268.5 -111.5t-268.5 112t-109.5 260.5zM330 1073q0 -158 36.5 -253t106.5 -95t106.5 95t36.5 252t-35.5 251t-107.5 94q-47 0 -80 -44t-48 -120.5 t-15 -179.5z" />
<glyph unicode="&#xbb;" horiz-adv-x="1005" d="M86 145l365 560l-365 563h109l467 -563l-467 -560h-109zM348 145l367 560l-367 563h111l465 -563l-465 -560h-111z" />
<glyph unicode="&#xbc;" horiz-adv-x="1150" d="M109 961v22q53 0 62 19.5t9 136.5v16v442q0 31 4 70q2 35 -5 40t-56 -3q-10 -2 -14 -2v22l294 66v-635v-16q0 -117 8.5 -136.5t61.5 -19.5v-22h-364zM129 -33l727 1843h115l-725 -1843h-117zM463 223v10l383 566h129v-518h41v-58h-41v-28q0 -131 9 -153t63 -22v-20h-365 v20q53 0 61.5 21.5t8.5 153.5v28h-289zM590 281h162v239z" />
<glyph unicode="&#xbd;" horiz-adv-x="1210" d="M109 961v22q53 0 62 19.5t9 136.5v16v442q0 31 4 70q2 35 -5 40t-56 -3q-10 -2 -14 -2v22l294 66v-635v-16q0 -117 8.5 -136.5t61.5 -19.5v-22h-364zM137 -33l727 1843h117l-727 -1843h-117zM555 0v137q0 96 20.5 167t54.5 111t74.5 66.5t80.5 43t74 33.5t55.5 47 t21.5 73q0 35 -11.5 61.5t-27.5 39t-35 12.5q-63 0 -63 -123q0 -16 -14.5 -33t-41 -29t-59.5 -12q-47 0 -81 24.5t-34 49.5q0 55 84 102t191 47q94 0 170 -59.5t76 -139.5q0 -76 -44.5 -131t-108 -87.5t-125.5 -63.5t-106 -79t-44 -116h296q90 0 111 13.5t21 58.5h20v-213 h-555z" />
<glyph unicode="&#xbe;" horiz-adv-x="1165" d="M98 1094q0 23 34 47t81 24t82 -24.5t35 -46.5q0 -59 10 -91t27 -32q47 0 76.5 85t21.5 187q-4 92 -43 126t-146 -3l3 33q41 23 73.5 54.5t53 79.5t20.5 101q0 45 -11.5 81t-31.5 36q-18 0 -35.5 -31.5t-17.5 -89.5q0 -25 -35 -50.5t-83 -25.5t-81 25t-33 51q0 47 52.5 82 t117 50.5t121.5 15.5q84 0 144.5 -23.5t88 -57.5t27.5 -75q0 -45 -28.5 -80t-60.5 -50t-69.5 -29.5t-44.5 -16.5q78 16 159 -39t87 -147q8 -111 -96 -214.5t-262 -101.5q-90 0 -163 44t-73 106zM225 -33l727 1843h117l-727 -1843h-117zM465 223v10l383 566h131v-518h39v-58 h-39v-28q0 -131 8 -153t62 -22v-20h-365v20q53 0 62.5 21.5t9.5 153.5v28h-291zM592 281h164v239z" />
<glyph unicode="&#xbf;" horiz-adv-x="1181" d="M70 10q0 90 26.5 176t70.5 156t101.5 139.5t116.5 128t116.5 123t103.5 120.5t76 123.5t32 133.5q18 23 61 23q16 0 31.5 -5.5t23.5 -11.5l7 -6q-2 -143 -31 -268t-73 -214t-97 -167t-106.5 -144.5t-97.5 -130t-70.5 -140.5t-26.5 -161q0 -109 55 -177t170 -68 q78 0 131 38.5t77 99t24 136.5q0 53 53 98t131 45q51 0 94 -21.5t65.5 -54t22.5 -67.5q0 -113 -176 -214t-422 -101q-123 0 -220 36.5t-153.5 97t-86 131t-29.5 146.5zM600 1255q-20 49 5.5 98.5t90.5 76.5q74 29 152 1t102 -81q18 -53 -6 -102.5t-90 -76.5 q-70 -29 -150.5 0t-103.5 84z" />
<glyph unicode="&#xc0;" d="M-16 0v33q37 0 54 2t41.5 12t38 30.5t34 60.5t38 97.5t41.5 145.5l285 1003q18 66 30.5 115t19.5 88t10.5 63.5t-1 43t-10.5 28t-20.5 15.5t-27.5 7t-36 1v33h273l391 -1397q25 -90 42 -146.5t37.5 -96.5t34 -60.5t37 -30.5t42 -12t55.5 -2v-33h-582v33q31 0 46 2 t30.5 14t16.5 32.5t-3 62.5t-18.5 99.5t-38.5 147.5l-135 463h-224l-131 -463q-25 -90 -39 -147.5t-19 -99.5t-3 -62.5t16.5 -32.5t29.5 -14t48 -2v-33h-403zM403 2097h218l84 -233h-111zM504 922h188l-94 338z" />
<glyph unicode="&#xc1;" d="M-16 0v33q37 0 54 2t41.5 12t38 30.5t34 60.5t38 97.5t41.5 145.5l285 1003q18 68 30.5 116t19.5 87t10.5 63.5t-1 43t-10.5 28t-20.5 15.5t-27.5 7t-36 1v33h273l391 -1397q25 -90 42 -146.5t37.5 -96.5t34 -60.5t37 -30.5t42 -12t55.5 -2v-33h-582v33q31 0 46 2 t30.5 14t16.5 32.5t-3 62.5t-18.5 99.5t-38.5 147.5l-135 463h-224l-131 -463q-25 -90 -39 -147.5t-19 -99.5t-3 -62.5t16.5 -32.5t29.5 -14t48 -2v-33h-403zM504 922h188l-94 338zM510 1864l84 233h217l-190 -233h-111z" />
<glyph unicode="&#xc2;" d="M-16 0v33q37 0 54 2t41.5 12t38 30.5t34 60.5t38 97.5t41.5 145.5l285 1003q25 88 39 146.5t18.5 100.5t2 63.5t-16.5 33t-30.5 14.5t-47.5 3v33h273l391 -1397q25 -90 42 -146.5t37.5 -96.5t34 -60.5t37 -30.5t42 -12t55.5 -2v-33h-582v33q31 0 46 2t30.5 14t16.5 32.5 t-3 62.5t-18.5 99.5t-38.5 147.5l-135 463h-224l-131 -463q-25 -90 -39 -147.5t-19 -99.5t-3 -62.5t16.5 -32.5t29.5 -14t48 -2v-33h-403zM471 1864l84 233h213l82 -233h-109l-79 100l-82 -100h-109zM504 922h188l-94 338z" />
<glyph unicode="&#xc3;" d="M-16 0v33q37 0 54 2t41.5 12t38 30.5t34 60.5t38 97.5t41.5 145.5l285 1003q25 88 39 146.5t18.5 100.5t2 63.5t-16.5 33t-30.5 14.5t-47.5 3v33h273l391 -1397q25 -90 42 -146.5t37.5 -96.5t34 -60.5t37 -30.5t42 -12t55.5 -2v-33h-582v33q31 0 46 2t30.5 14t16.5 32.5 t-3 62.5t-18.5 99.5t-38.5 147.5l-135 463h-224l-131 -463q-25 -90 -39 -147.5t-19 -99.5t-3 -62.5t16.5 -32.5t29.5 -14t48 -2v-33h-403zM418 1896q0 68 44 134.5t120 66.5q53 0 98 -27.5t73.5 -56t39.5 -28.5q-2 0 -2 3t1 10t2 15t2 21.5t1 25.5h106q0 -80 -33.5 -138 t-109.5 -58q-51 0 -101.5 27.5t-81 55t-36.5 27.5q2 0 -2 -9t-9.5 -28.5t-5.5 -40.5h-106zM504 922h188l-94 338z" />
<glyph unicode="&#xc4;" d="M-16 0v33q37 0 54 2t41.5 12t38 30.5t34 60.5t38 97.5t41.5 145.5l285 1003q25 88 39 146.5t18.5 100.5t2 63.5t-16.5 33t-30.5 14.5t-47.5 3v33h273l391 -1397q25 -90 42 -146.5t37.5 -96.5t34 -60.5t37 -30.5t42 -12t55.5 -2v-33h-582v33q31 0 46 2t30.5 14t16.5 32.5 t-3 62.5t-18.5 99.5t-38.5 147.5l-135 463h-224l-131 -463q-25 -90 -39 -147.5t-19 -99.5t-3 -62.5t16.5 -32.5t29.5 -14t48 -2v-33h-403zM375 1929q-51 84 47 146q55 31 130 15.5t101 -58.5v-3t2 -1q16 27 50 47q55 31 129.5 15.5t99.5 -58.5q51 -84 -47 -146 q-55 -31 -130 -16.5t-102 59.5l-1 1l-1 1q-16 -25 -49 -45q-53 -31 -129 -16.5t-100 59.5zM504 922h188l-94 338z" />
<glyph unicode="&#xc5;" d="M-16 0v33q37 0 54 2t41.5 12t38 30.5t34 60.5t38 97.5t41.5 145.5l285 1003q18 68 30.5 116t19.5 87t10.5 63.5t-1 43t-10.5 28t-20.5 15.5t-27.5 7t-36 1v33h273l391 -1397q25 -90 42 -146.5t37.5 -96.5t34 -60.5t37 -30.5t42 -12t55.5 -2v-33h-582v33q31 0 46 2 t30.5 14t16.5 32.5t-3 62.5t-18.5 99.5t-38.5 147.5l-135 463h-224l-131 -463q-25 -90 -39 -147.5t-19 -99.5t-3 -62.5t16.5 -32.5t29.5 -14t48 -2v-33h-403zM465 1980q0 57 56.5 105.5t140.5 48.5q53 0 100 -23.5t71.5 -58.5t24.5 -72q0 -57 -57 -106t-139 -49 q-55 0 -101.5 23.5t-71 59.5t-24.5 72zM504 922h188l-94 338zM588 1980q0 -53 21.5 -83.5t51 -30.5t51 30.5t21.5 84t-21 83t-50 29.5q-20 0 -36 -11t-27 -39t-11 -63z" />
<glyph unicode="&#xc6;" horiz-adv-x="1601" d="M-16 0v33q37 0 54 2t41.5 12t38 30.5t34 60.5t38 97.5t41.5 145.5l285 1005q12 51 33 138q-8 109 -21.5 152.5t-35 56t-80.5 12.5v33h1061v-559h-33q0 492 -314 491h-268v-788h156q150 0 200 35.5t50 140.5h32v-418h-32q0 102 -50.5 138t-199.5 36h-156v-786h311 q70 0 123.5 23.5t86 67.5t55 92t32 108.5t13.5 104.5t4 93h33v-557h-1104v33q41 0 59 4t37.5 20.5t27 56.5t11.5 102.5t4 168.5v469h-66l-131 -463q-18 -68 -30.5 -116t-19.5 -86.5t-11 -63.5t0 -43.5t9 -27.5t19.5 -14t27.5 -6t38 -1v-33h-403zM504 922h47v165z" />
<glyph unicode="&#xc7;" horiz-adv-x="1409" d="M66 887q0 184 55 352t153.5 294t243 200.5t313.5 74.5q121 0 218.5 -37.5t154 -95t85 -117t28.5 -110.5q0 -82 -60.5 -125t-148.5 -43q-84 0 -133 45t-49 127q0 35 3 78t6 70.5t2 56.5t-11.5 45t-34 27.5t-60.5 11.5q-147 0 -254.5 -115t-156.5 -290t-49 -380 q0 -182 42 -347t109.5 -280.5t154.5 -187t175 -80.5q266 -29 426 297l102 -57q-72 -135 -193.5 -225.5t-254.5 -104.5q-6 -20 -22.5 -37.5t-37 -28.5t-39 -18.5t-33.5 -12.5l-14 -5q49 12 115 -36t70 -118q6 -86 -80 -168t-215 -82q-74 0 -134.5 35t-60.5 82q0 18 30 39 t72 21t70.5 -20.5t28.5 -39.5q0 -31 4 -54.5t9 -32.5t10 -9q31 0 52 67.5t19 147.5q-4 37 -10 59.5t-22.5 38t-45 13.5t-75.5 -17v31q94 41 112 143q-193 14 -347.5 143.5t-238 333t-83.5 441.5z" />
<glyph unicode="&#xc8;" horiz-adv-x="1239" d="M49 0v33q41 0 59.5 4t38 20.5t26.5 56.5t11 102.5t4 168.5v1008q0 104 -4 167.5t-11 103.5t-26.5 55.5t-38 20.5t-59.5 5v33h1059v-559h-33q0 492 -311 491h-268v-788h153q152 0 202 35.5t50 140.5h33v-418h-33q0 70 -21.5 106.5t-73.5 52t-157 15.5h-153v-786h311 q70 0 123 23.5t86 67.5t54.5 92t31.5 108.5t13 104.5t3 93h33v-557h-1102zM424 2097h215l84 -233h-109z" />
<glyph unicode="&#xc9;" horiz-adv-x="1239" d="M49 0v33q41 0 59.5 4t38 20.5t26.5 56.5t11 102.5t4 168.5v1008q0 104 -4 167.5t-11 103.5t-26.5 55.5t-38 20.5t-59.5 5v33h1059v-559h-33q0 492 -311 491h-268v-788h153q152 0 202 35.5t50 140.5h33v-418h-33q0 70 -21.5 106.5t-73.5 52t-157 15.5h-153v-786h311 q70 0 123 23.5t86 67.5t54.5 92t31.5 108.5t13 104.5t3 93h33v-557h-1102zM422 1864l84 233h217l-191 -233h-110z" />
<glyph unicode="&#xca;" horiz-adv-x="1239" d="M49 0v33q41 0 59.5 4t38 20.5t26.5 56.5t11 102.5t4 168.5v1008q0 104 -4 167.5t-11 103.5t-26.5 55.5t-38 20.5t-59.5 5v33h1059v-559h-33q0 492 -311 491h-268v-788h153q152 0 202 35.5t50 140.5h33v-418h-33q0 70 -21.5 106.5t-73.5 52t-157 15.5h-153v-786h311 q70 0 123 23.5t86 67.5t54.5 92t31.5 108.5t13 104.5t3 93h33v-557h-1102zM383 1864l84 233h213l84 -233h-109l-82 100l-79 -100h-111z" />
<glyph unicode="&#xcb;" horiz-adv-x="1239" d="M49 0v33q41 0 59.5 4t38 20.5t26.5 56.5t11 102.5t4 168.5v1008q0 104 -4 167.5t-11 103.5t-26.5 55.5t-38 20.5t-59.5 5v33h1059v-559h-33q0 492 -311 491h-268v-788h153q152 0 202 35.5t50 140.5h33v-418h-33q0 102 -50 138t-202 36h-153v-786h311q70 0 123 23.5 t86 67.5t54.5 92t31.5 108.5t13 104.5t3 93h33v-557h-1102zM291 1929q-51 80 47 146q55 29 130 13.5t101 -56.5q0 -2 2 -4q16 25 50 47q55 29 128.5 13.5t102.5 -56.5q23 -37 10.5 -77t-57.5 -69q-55 -31 -131 -16.5t-103 59.5l-1 1l-1 1q-16 -25 -49 -45 q-53 -31 -128 -16.5t-101 59.5z" />
<glyph unicode="&#xcc;" horiz-adv-x="681" d="M49 0v33q41 0 59.5 4t38 20.5t26.5 56.5t11 102.5t4 168.5v1008q0 104 -4 167.5t-11 103.5t-26.5 55.5t-38 20.5t-59.5 5v33h586v-33q-41 0 -59.5 -5t-39 -21.5t-27.5 -55.5t-11 -102.5t-4 -167.5v-1008q0 -76 2 -128t5 -91t12 -62.5t17.5 -39t26.5 -21.5t33.5 -8 t44.5 -2v-33h-586zM166 2097h215l84 -233h-109z" />
<glyph unicode="&#xcd;" horiz-adv-x="681" d="M49 0v33q41 0 59.5 4t38 20.5t26.5 56.5t11 102.5t4 168.5v1008q0 104 -4 167.5t-11 103.5t-26.5 55.5t-38 20.5t-59.5 5v33h586v-33q-41 0 -59.5 -5t-39 -21.5t-27.5 -55.5t-11 -102.5t-4 -167.5v-1008q0 -76 2 -128t5 -91t12 -62.5t17.5 -39t26.5 -21.5t33.5 -8 t44.5 -2v-33h-586zM190 1864l84 233h215l-188 -233h-111z" />
<glyph unicode="&#xce;" horiz-adv-x="681" d="M49 0v33q41 0 59.5 4t38 20.5t26.5 56.5t11 102.5t4 168.5v1008q0 104 -4 167.5t-11 103.5t-26.5 55.5t-38 20.5t-59.5 5v33h586v-33q-33 0 -50.5 -2t-37 -13.5t-27.5 -33t-15 -62.5t-9 -98t-2 -143v-1008q0 -104 4 -167.5t11 -103.5t27.5 -56.5t39 -20.5t59.5 -4v-33 h-586zM152 1864l81 233h218l81 -233h-110l-82 98l-78 -98h-110z" />
<glyph unicode="&#xcf;" horiz-adv-x="679" d="M47 0v33q41 0 59.5 4t38 20.5t26.5 56.5t11 102.5t4 168.5v1008q0 104 -4 167.5t-11 103.5t-26.5 55.5t-38 20.5t-59.5 5v33h584v-33q-41 0 -59.5 -5t-38 -20.5t-26.5 -55.5t-11 -103.5t-4 -167.5v-1008q0 -106 4 -168.5t11 -102.5t26.5 -56.5t38 -20.5t59.5 -4v-33h-584 zM63 1927q-55 82 46 148q53 29 127.5 13.5t101.5 -56.5q2 -2 2 -4q16 25 49 47q53 29 130 13.5t102 -56.5q53 -84 -50 -146q-51 -31 -125.5 -16.5t-101.5 57.5q-2 2 -2 4q-16 -25 -49 -45q-53 -31 -129 -16.5t-101 57.5z" />
<glyph unicode="&#xd0;" horiz-adv-x="1462" d="M57 0v33q41 0 59.5 4t38 20.5t26.5 56.5t11.5 102.5t4.5 168.5v469h-140v68h140v471q0 88 -2 144t-9.5 97t-15.5 61.5t-26.5 33t-36 14.5t-50.5 2v33h193q82 0 219 16t162 16q223 0 400 -127t271.5 -336.5t94.5 -459.5q0 -248 -94.5 -457t-271.5 -336t-400 -127 q-25 0 -162 16.5t-219 16.5h-193zM502 47q94 -12 129 -12q147 0 252.5 110.5t157 301t51.5 440.5q0 252 -51.5 442.5t-157 302t-252.5 111.5q-35 0 -129 -12v-809h153v-68h-153v-807z" />
<glyph unicode="&#xd1;" horiz-adv-x="1490" d="M49 0v33q41 0 59.5 4t38 20.5t26.5 56.5t11 102.5t4 168.5v1008q0 104 -4 167.5t-11 103.5t-26.5 55.5t-38 20.5t-59.5 5v33h438l699 -1241v856q0 104 -5 167.5t-12.5 102.5t-27 55.5t-39 21.5t-60.5 5v33h404v-33q-41 0 -59.5 -5t-38 -20.5t-26.5 -55.5t-11 -103.5 t-4 -167.5v-1393h-117l-877 1563v-1178q0 -106 4.5 -168.5t11.5 -102.5t26.5 -56.5t38 -20.5t59.5 -4v-33h-404zM506 1896q0 70 43 135.5t121 65.5q53 0 98 -27.5t72.5 -56t38.5 -28.5q-2 0 0 8t5 27.5t3 39.5h102q0 -80 -33.5 -138t-109.5 -58q-51 0 -100.5 27.5t-80 55 t-36.5 27.5q-18 -33 -19 -78h-104z" />
<glyph unicode="&#xd2;" horiz-adv-x="1757" d="M59 887q0 184 63.5 354t172 295t261.5 199.5t323 74.5q225 0 414.5 -127t297 -338.5t107.5 -457.5q0 -244 -107.5 -456t-297 -338t-415 -126t-415 126t-297 338t-107.5 456zM365 887q0 -246 63.5 -439.5t181 -303t269.5 -109.5q150 0 267.5 109.5t182 304t64.5 438.5 q0 246 -64.5 441.5t-182.5 305t-267 109.5q-152 0 -269.5 -109.5t-181 -304t-63.5 -442.5zM623 2097h215l84 -233h-109z" />
<glyph unicode="&#xd3;" horiz-adv-x="1757" d="M59 887q0 184 63.5 354t172 295t261.5 199.5t323 74.5q225 0 414.5 -127t297 -338.5t107.5 -457.5q0 -244 -107.5 -456t-297 -338t-415 -126t-415 126t-297 338t-107.5 456zM365 887q0 -246 63.5 -439.5t181 -303t269.5 -109.5q150 0 267.5 109.5t182 304t64.5 438.5 q0 246 -64.5 441.5t-182.5 305t-267 109.5q-152 0 -269.5 -109.5t-181 -304t-63.5 -442.5zM834 1864l81 233h220l-191 -233h-110z" />
<glyph unicode="&#xd4;" horiz-adv-x="1757" d="M59 887q0 184 63.5 354t172 295t261.5 199.5t323 74.5q225 0 414.5 -127t297 -338.5t107.5 -457.5q0 -244 -107.5 -456t-297 -338t-415 -126t-415 126t-297 338t-107.5 456zM365 887q0 -246 63.5 -439.5t181 -303t269.5 -109.5q150 0 267.5 109.5t182 304t64.5 438.5 q0 246 -64.5 441.5t-182.5 305t-267 109.5q-152 0 -269.5 -109.5t-181 -304t-63.5 -442.5zM688 1864l84 233h213l84 -233h-111l-79 100l-82 -100h-109z" />
<glyph unicode="&#xd5;" horiz-adv-x="1757" d="M59 887q0 184 63.5 354t172 295t261.5 199.5t323 74.5q225 0 414.5 -127t297 -338.5t107.5 -457.5q0 -244 -107.5 -456t-297 -338t-415 -126t-415 126t-297 338t-107.5 456zM365 887q0 -246 63.5 -439.5t181 -303t269.5 -109.5q150 0 267.5 109.5t182 304t64.5 438.5 q0 246 -64.5 441.5t-182.5 305t-267 109.5q-152 0 -269.5 -109.5t-181 -304t-63.5 -442.5zM637 1896q0 68 44 134.5t120 66.5q53 0 98 -28.5t72.5 -56t38.5 -27.5q-2 0 0 8t4 27.5t2 39.5h104q0 -82 -32.5 -139t-110.5 -57q-51 0 -100.5 27.5t-80 55t-36.5 27.5 q-16 -33 -17 -78h-106z" />
<glyph unicode="&#xd6;" horiz-adv-x="1757" d="M59 887q0 184 63.5 354t172 295t261.5 199.5t323 74.5q225 0 414.5 -127t297 -338.5t107.5 -457.5q0 -244 -107.5 -456t-297 -338t-415 -126t-415 126t-297 338t-107.5 456zM365 887q0 -246 63.5 -439.5t181 -303t269.5 -109.5q150 0 267.5 109.5t182 304t64.5 438.5 q0 246 -64.5 441.5t-182.5 305t-267 109.5q-152 0 -269.5 -109.5t-181 -304t-63.5 -442.5zM578 1980q0 25 20 51.5t57 46t80 19.5q47 0 85 -20.5t57 -51.5q20 31 57 51.5t84 20.5q66 0 111 -38t45 -79t-45.5 -78.5t-110.5 -37.5q-47 0 -84 20.5t-57 48.5q-12 -18 -33 -33.5 t-49.5 -25.5t-59.5 -10q-63 0 -110 37.5t-47 78.5z" />
<glyph unicode="&#xd7;" horiz-adv-x="1062" d="M88 0l385 705l-385 704h117l327 -600l324 600h117l-385 -704l385 -705h-117l-324 600l-327 -600h-117z" />
<glyph unicode="&#xd8;" horiz-adv-x="1757" d="M59 887q0 184 63.5 354t172 295t261.5 199.5t323 74.5q104 0 202 -28l9 28h116l-20 -65l2 -2h-2q229 -106 370.5 -340t141.5 -516q0 -244 -107.5 -456t-297 -338t-414.5 -126q-104 0 -203 29l-2 -6h-2l-6 -23h-121l20 66v4q-227 106 -366.5 338.5t-139.5 511.5zM365 887 q0 -242 61 -433.5t174 -299.5l23 77l434 1467q-84 45 -178 45q-152 0 -269.5 -109.5t-181 -304t-63.5 -442.5zM698 80q85 -45 181 -45q113 0 209 63.5t162.5 176t104.5 271.5t38 341q0 244 -63.5 437.5t-176.5 301.5l-276 -946z" />
<glyph unicode="&#xd9;" horiz-adv-x="1423" d="M39 1745v33h586v-33q-33 0 -50.5 -2t-37 -13.5t-27.5 -33t-15.5 -62.5t-9.5 -98t-2 -143v-895q0 -233 80 -346t230 -113q86 0 151.5 35t103 96t56 138t18.5 165v920q0 104 -5 167.5t-11 103.5t-25.5 55.5t-39 20.5t-60.5 5v33h403v-33q-33 0 -50 -2t-35.5 -14.5 t-26.5 -33t-15.5 -61.5t-9.5 -97t-2 -144v-920q0 -238 -138 -372t-388 -134q-274 0 -407.5 124t-133.5 355v947q0 104 -4 167.5t-11 103.5t-26.5 55.5t-38 20.5t-59.5 5zM580 2097h215l84 -233h-109z" />
<glyph unicode="&#xda;" horiz-adv-x="1423" d="M39 1745v33h586v-33q-41 0 -59.5 -5t-39 -21.5t-27.5 -55.5t-11.5 -102.5t-4.5 -167.5v-895q0 -233 80 -346t230 -113q86 0 151.5 35t103 96t56 138t18.5 165v920q0 104 -5 167.5t-11 103.5t-25.5 55.5t-39 20.5t-60.5 5v33h403v-33q-33 0 -50 -2t-35.5 -14.5t-26.5 -33 t-15.5 -61.5t-9.5 -97t-2 -144v-920q0 -238 -138 -372t-388 -134q-274 0 -407.5 124t-133.5 355v947q0 104 -4 167.5t-11 103.5t-26.5 55.5t-38 20.5t-59.5 5zM729 1864l84 233h215l-190 -233h-109z" />
<glyph unicode="&#xdb;" horiz-adv-x="1423" d="M39 1745v33h586v-33q-33 0 -50.5 -2t-37 -13.5t-27.5 -33t-15.5 -62.5t-9.5 -98t-2 -143v-895q0 -233 80 -346t230 -113q86 0 151.5 35t103 96t56 138t18.5 165v920q0 104 -5 167.5t-11 103.5t-25.5 55.5t-39 20.5t-60.5 5v33h403v-33q-33 0 -50 -2t-35.5 -14.5 t-26.5 -33t-15.5 -61.5t-9.5 -97t-2 -144v-920q0 -238 -138 -372t-388 -134q-274 0 -407.5 124t-133.5 355v947q0 104 -4 167.5t-11 103.5t-26.5 55.5t-38 20.5t-59.5 5zM612 1864l84 233h213l82 -233h-108l-80 100l-82 -100h-109z" />
<glyph unicode="&#xdc;" horiz-adv-x="1423" d="M39 1745v33h586v-33q-41 0 -59.5 -5t-39 -21.5t-27.5 -55.5t-11.5 -102.5t-4.5 -167.5v-895q0 -233 80 -346t230 -113q86 0 151.5 35t103 96t56 138t18.5 165v920q0 104 -5 167.5t-11 103.5t-25.5 55.5t-39 20.5t-60.5 5v33h403v-33q-33 0 -50 -2t-35.5 -14.5t-26.5 -33 t-15.5 -61.5t-9.5 -97t-2 -144v-920q0 -238 -138 -372t-388 -134q-274 0 -407.5 124t-133.5 355v947q0 104 -4 167.5t-11 103.5t-26.5 55.5t-38 20.5t-59.5 5zM528 2015q20 45 88 68.5t129 1.5q51 -23 74 -57q25 41 87.5 59t121.5 -2q55 -25 75.5 -64t4.5 -79 q-20 -43 -86 -67t-129 1q-49 23 -72 55q-27 -39 -89.5 -58.5t-121.5 3.5q-55 25 -75.5 62.5t-6.5 76.5z" />
<glyph unicode="&#xdd;" horiz-adv-x="1423" d="M-23 1745v33h586v-33q-68 0 -74 -35q-8 -59 121 -326l191 -380l190 380q139 283 121 334q-10 27 -72 27v33h406v-33q-55 0 -83 -7t-65.5 -40t-77.5 -99.5t-102 -191.5l-256 -512v-510q0 -104 5 -167.5t11.5 -103.5t27 -56.5t40 -20.5t58.5 -4v-33h-586v33q41 0 59.5 4 t39 20.5t26.5 56.5t10 102.5t4 168.5v510l-252 510q-63 123 -103 190.5t-79 101.5t-66.5 41t-79.5 7zM735 1864l84 233h215l-190 -233h-109z" />
<glyph unicode="&#xde;" horiz-adv-x="1376" d="M49 0v33q41 0 59.5 4t38 20.5t26.5 56.5t11 102.5t4 168.5v1008q0 104 -4 167.5t-11 103.5t-26.5 55.5t-38 20.5t-59.5 5v33h445v-392h198q80 0 165 -15t174 -54t159 -94.5t114 -142.5t44 -193q0 -104 -44 -191.5t-114 -142.5t-159 -93t-174 -53.5t-165 -15.5h-198v-6 q0 -76 2 -128t5 -91t12 -62.5t17.5 -39t26.5 -21.5t33.5 -8t44.5 -2v-33h-586zM494 465h198q127 0 212 110.5t85 311.5q0 203 -85 312.5t-212 109.5h-198v-844z" />
<glyph unicode="&#xdf;" horiz-adv-x="1536" d="M39 0v33q41 0 59.5 4t38 20.5t26.5 56.5t11 102.5t4 168.5v911q0 481 539 482q455 0 454 -219q0 -80 -49 -131.5t-120.5 -76t-142.5 -46t-121 -58.5t-50 -94q0 -41 35 -85t92 -82t131 -84t151 -90t150.5 -99.5t131 -112.5t93 -131t35.5 -152q0 -63 -25.5 -123.5 t-74.5 -112.5t-134 -84t-192 -32q-213 0 -366.5 87t-153.5 184q0 29 20.5 57.5t58.5 47.5t83 19q70 0 118 -39.5t48 -84.5q0 -100 48 -167t144 -67q92 0 138.5 58.5t46.5 150.5q0 72 -40 136.5t-104.5 115.5t-142.5 101t-154.5 100.5t-141.5 104.5t-104.5 124t-39.5 149 q0 92 27.5 159t68.5 99.5t89 60.5t89 47t68.5 58t27.5 97q0 76 -41 125t-118 49q-115 0 -191 -131t-76 -361v-860q0 -106 4.5 -168.5t11.5 -102.5t26.5 -56.5t39 -20.5t60.5 -4v-33h-586z" />
<glyph unicode="&#xe0;" horiz-adv-x="1318" d="M63 352q0 127 59.5 244t145.5 197.5t196.5 148.5t201 105.5t172.5 60.5q-2 45 -4.5 75.5t-5.5 69.5t-7 66t-10 56.5t-15.5 49t-20.5 37t-27.5 24.5t-34.5 7q-86 0 -216 -122t-233 -331l-149 220q164 123 335 198.5t291 75.5q113 0 194 -32t125 -92t63.5 -134t19.5 -170 v-721q0 -106 5 -168.5t11 -102.5t25.5 -57.5t39 -21.5t58.5 -4v-31h-203q-88 0 -135 15.5t-90 56.5q-160 -106 -387 -107q-182 0 -293 109.5t-111 277.5zM369 385q0 -152 64.5 -247t162.5 -95q140 0 244 135v140.5v226.5v239.5v195.5v79q-84 -20 -163 -71.5t-150.5 -130.5 t-114.5 -202t-43 -270zM469 1810h219l82 -231h-111z" />
<glyph unicode="&#xe1;" horiz-adv-x="1318" d="M63 352q0 127 59.5 244t145.5 197.5t196.5 148.5t201 105.5t172.5 60.5q-2 45 -4.5 75.5t-5.5 69.5t-7 66t-10 56.5t-15.5 49t-20.5 37t-27.5 24.5t-34.5 7q-86 0 -216 -122t-233 -331l-149 220q164 123 335 198.5t291 75.5q113 0 194 -32t125 -92t63.5 -134t19.5 -170 v-721q0 -106 5 -168.5t11 -102.5t25.5 -57.5t39 -21.5t58.5 -4v-31h-203q-82 0 -141 21.5t-84 50.5q-164 -106 -387 -107q-182 0 -293 109.5t-111 277.5zM369 385q0 -152 64.5 -247t162.5 -95q140 0 244 135v140.5v226.5v239.5v195.5v79q-84 -20 -163 -71.5t-150.5 -130.5 t-114.5 -202t-43 -270zM504 1579l84 231h219l-191 -231h-112z" />
<glyph unicode="&#xe2;" horiz-adv-x="1318" d="M63 352q0 127 59.5 244t145.5 197.5t196.5 148.5t201 105.5t172.5 60.5q-2 45 -4.5 75.5t-5.5 69.5t-7 66t-10 56.5t-15.5 49t-20.5 37t-27.5 24.5t-34.5 7q-86 0 -216 -122t-233 -331l-149 220q164 123 335 198.5t291 75.5q113 0 194 -32t125 -92t63.5 -134t19.5 -170 v-721q0 -106 5 -168.5t11 -102.5t25.5 -57.5t39 -21.5t58.5 -4v-31h-203q-176 0 -225 72q-154 -106 -387 -107q-182 0 -293 109.5t-111 277.5zM369 385q0 -152 64.5 -247t162.5 -95q140 0 244 135v140.5v226.5v239.5v195.5v79q-84 -20 -163 -71.5t-150.5 -130.5t-114.5 -202 t-43 -270zM481 1579l84 231h215l84 -231h-110l-80 98l-80 -98h-113z" />
<glyph unicode="&#xe3;" horiz-adv-x="1318" d="M63 352q0 127 59.5 244t145.5 197.5t196.5 148.5t201 105.5t172.5 60.5q-2 45 -4.5 75.5t-5.5 69.5t-7 66t-10 56.5t-15.5 49t-20.5 37t-27.5 24.5t-34.5 7q-86 0 -216 -122t-233 -331l-149 220q164 123 335 198.5t291 75.5q113 0 194 -32t125 -92t63.5 -134t19.5 -170 v-721q0 -106 5 -168.5t11 -102.5t25.5 -57.5t39 -21.5t58.5 -4v-31h-203q-80 0 -143.5 23.5t-81.5 48.5q-168 -106 -387 -107q-182 0 -293 109.5t-111 277.5zM369 385q0 -152 64.5 -247t162.5 -95q140 0 244 135v140.5v226.5v239.5v195.5v79q-84 -20 -163 -71.5 t-150.5 -130.5t-114.5 -202t-43 -270zM416 1612q0 70 44 134t122 64q51 0 96 -27.5t73.5 -54t36.5 -26.5v2t1.5 9t3.5 15.5t3 21.5t1 28h104q0 -82 -35 -140.5t-110 -58.5q-51 0 -100.5 27.5t-79 56.5t-35.5 29q-20 -37 -21 -80h-104z" />
<glyph unicode="&#xe4;" horiz-adv-x="1318" d="M63 352q0 127 59.5 244t145.5 197.5t196.5 148.5t201 105.5t172.5 60.5q-2 45 -4.5 75.5t-5.5 69.5t-7 66t-10 56.5t-15.5 49t-20.5 37t-27.5 24.5t-34.5 7q-86 0 -216 -122t-233 -331l-149 220q164 123 335 198.5t291 75.5q113 0 194 -32t125 -92t63.5 -134t19.5 -170 v-721q0 -106 5 -168.5t11 -102.5t25.5 -57.5t39 -21.5t58.5 -4v-31h-203q-170 0 -225 72q-162 -106 -387 -107q-182 0 -293 109.5t-111 277.5zM369 385q0 -152 64.5 -247t162.5 -95q140 0 244 135v140.5v226.5v239.5v195.5v79q-84 -20 -163 -71.5t-150.5 -130.5t-114.5 -202 t-43 -270zM391 1731q18 45 88 68.5t129 0.5q55 -25 75.5 -63.5t6.5 -77.5q-12 -29 -50 -50.5t-82 -27.5t-87 8q-55 25 -75.5 64t-4.5 78zM672 1731q10 23 33.5 40t54.5 27t64.5 12t66.5 -10q53 -25 73.5 -63.5t6.5 -77.5q-20 -43 -89 -67.5t-128 -2.5q-55 25 -77 64t-5 78z " />
<glyph unicode="&#xe5;" horiz-adv-x="1318" d="M63 352q0 127 59.5 244t145.5 197.5t196.5 148.5t201 105.5t172.5 60.5q-2 45 -4.5 75.5t-5.5 69.5t-7 66t-10 56.5t-15.5 49t-20.5 37t-27.5 24.5t-34.5 7q-86 0 -216 -122t-233 -331l-149 220q164 123 335 198.5t291 75.5q113 0 194 -32t125 -92t63.5 -134t19.5 -170 v-721q0 -106 5 -168.5t11 -102.5t25.5 -57.5t39 -21.5t58.5 -4v-31h-203q-94 0 -144 14.5t-81 57.5q-199 -106 -387 -107q-182 0 -293 109.5t-111 277.5zM369 385q0 -152 64.5 -247t162.5 -95q140 0 244 135v140.5v226.5v239.5v195.5v79q-84 -20 -163 -71.5t-150.5 -130.5 t-114.5 -202t-43 -270zM424 1696q0 57 57.5 106t136.5 49q82 0 140.5 -49t58.5 -106q0 -37 -25.5 -73t-72 -60.5t-101.5 -24.5q-80 0 -137 50t-57 108zM545 1696q0 -53 22.5 -84t50.5 -31q18 0 35 12.5t28 39t11 63.5q0 51 -22.5 81.5t-51.5 30.5q-14 0 -26 -7t-23.5 -21.5 t-17.5 -36t-6 -47.5z" />
<glyph unicode="&#xe6;" horiz-adv-x="2119" d="M63 352q0 127 59.5 244t145.5 197.5t196.5 148.5t201 105.5t172.5 60.5q-4 59 -6.5 99t-7.5 89.5t-13 81t-21.5 60t-33 42t-43.5 13.5q-86 0 -216 -122t-233 -331l-149 220q164 123 335 198.5t291 75.5q158 0 255.5 -58.5t111.5 -119.5q29 37 94.5 78t156.5 71.5 t173 30.5q190 0 331.5 -101.5t141.5 -263.5q0 -96 -62.5 -177t-157.5 -134t-214 -92t-227.5 -56.5t-200.5 -19.5q0 -113 28.5 -226.5t83 -213.5t146.5 -163.5t207 -63.5q186 0 391 307l82 -58q-209 -307 -549 -307q-156 0 -299 71t-207 161q-41 -47 -93 -86t-121 -74 t-158 -54.5t-187 -19.5q-182 0 -293 109.5t-111 277.5zM369 385q0 -152 64.5 -247t162.5 -95q102 0 190 54.5t191 170.5q-137 199 -137 428q0 150 6 197t45 182q-104 -29 -193.5 -82t-165 -135t-119.5 -204t-44 -269zM1143 733q100 4 199.5 41t179.5 98.5t130 152.5t50 194 q0 68 -14.5 121t-39 85.5t-54 50t-62.5 17.5q-104 0 -194.5 -110.5t-142.5 -286.5t-52 -363z" />
<glyph unicode="&#xe7;" horiz-adv-x="1331" d="M63 727q0 174 63.5 328.5t164 257t223.5 163t242 60.5q94 0 171 -22.5t123 -56.5t76.5 -76t43 -76.5t12.5 -61.5q0 -66 -41 -105.5t-119 -39.5q-41 0 -75 10t-58.5 28.5t-37.5 45t-13 61.5v47v51.5t-2 45t-7.5 44t-14.5 32t-23.5 23.5t-34.5 7q-72 0 -139.5 -49 t-124 -140.5t-90 -235.5t-33.5 -318q0 -117 16 -222.5t52 -198.5t89.5 -160t131 -105.5t173.5 -38.5q188 0 392 307l86 -58q-76 -117 -198 -203t-257 -100q-6 -25 -29.5 -45t-47 -30.5t-47 -18.5t-25.5 -8q53 12 118.5 -36t69.5 -118q6 -86 -80 -168t-215 -82 q-74 0 -134.5 35t-60.5 82q0 12 12.5 25.5t36 24t52.5 10.5q43 0 71.5 -20.5t28.5 -39.5q0 -14 1 -26.5t2 -21.5t3 -17.5t4 -14.5t4.5 -9t4.5 -5t4 -2q31 0 52 67.5t15 147.5q-2 37 -8 59.5t-21.5 38t-45 13.5t-74.5 -17v31q94 47 112 145q-166 16 -303 125t-214 277 t-77 354z" />
<glyph unicode="&#xe8;" horiz-adv-x="1341" d="M61 702q0 172 63.5 330t164 265.5t223.5 172t242 64.5q190 0 331.5 -101.5t141.5 -261.5q0 -96 -62.5 -178t-158 -135t-214 -91t-226 -55.5t-199.5 -19.5q0 -113 27.5 -226.5t81.5 -213.5t146.5 -163.5t206.5 -63.5q187 0 392 307l84 -58q-92 -133 -229.5 -221 t-321.5 -88q-182 0 -343 100.5t-255.5 270.5t-94.5 366zM367 733q135 4 261 64.5t211 173t85 248.5q0 55 -9.5 100t-26 76.5t-38 54.5t-45.5 33t-51 10q-102 0 -193.5 -111.5t-142.5 -286.5t-51 -362zM508 1810h217l84 -231h-111z" />
<glyph unicode="&#xe9;" horiz-adv-x="1341" d="M61 702q0 172 63.5 330t164 265.5t223.5 172t242 64.5q190 0 331.5 -101.5t141.5 -261.5q0 -96 -62.5 -178t-158 -135t-214 -91t-226 -55.5t-199.5 -19.5q0 -113 27.5 -226.5t81.5 -213.5t146.5 -163.5t206.5 -63.5q187 0 392 307l84 -58q-92 -133 -229.5 -221 t-321.5 -88q-182 0 -343 100.5t-255.5 270.5t-94.5 366zM367 733q135 4 261 64.5t211 173t85 248.5q0 131 -50 202.5t-120 71.5q-102 0 -193.5 -111.5t-142.5 -286.5t-51 -362zM709 1579l84 231h217l-191 -231h-110z" />
<glyph unicode="&#xea;" horiz-adv-x="1341" d="M61 702q0 172 63.5 330t164 265.5t223.5 172t242 64.5q190 0 331.5 -101.5t141.5 -261.5q0 -96 -62.5 -178t-158 -135t-214 -91t-226 -55.5t-199.5 -19.5q0 -113 27.5 -226.5t81.5 -213.5t146.5 -163.5t206.5 -63.5q187 0 392 307l84 -58q-92 -133 -229.5 -221 t-321.5 -88q-182 0 -343 100.5t-255.5 270.5t-94.5 366zM367 733q135 4 261 64.5t211 173t85 248.5q0 131 -50 202.5t-120 71.5q-102 0 -193.5 -111.5t-142.5 -286.5t-51 -362zM535 1579l83 231h218l82 -231h-111l-78 98l-82 -98h-112z" />
<glyph unicode="&#xeb;" horiz-adv-x="1341" d="M61 702q0 172 63.5 330t164 265.5t223.5 172t242 64.5q190 0 331.5 -101.5t141.5 -261.5q0 -96 -62.5 -178t-158 -135t-214 -91t-226 -55.5t-199.5 -19.5q0 -113 27.5 -226.5t81.5 -213.5t146.5 -163.5t206.5 -63.5q187 0 392 307l84 -58q-92 -133 -229.5 -221 t-321.5 -88q-182 0 -343 100.5t-255.5 270.5t-94.5 366zM367 733q135 4 261 64.5t211 173t85 248.5q0 131 -50 202.5t-120 71.5q-102 0 -193.5 -111.5t-142.5 -286.5t-51 -362zM436 1731q20 45 87 69.5t132 -0.5q53 -25 73.5 -63.5t6.5 -77.5q-20 -43 -90 -67.5t-127 -2.5 q-55 27 -75.5 65t-6.5 77zM719 1731q20 45 86.5 69.5t130.5 -0.5q29 -12 48.5 -28.5t28.5 -36t11 -39t-6 -37.5q-20 -43 -90 -67.5t-129 -2.5q-55 27 -74.5 65t-5.5 77z" />
<glyph unicode="&#xec;" horiz-adv-x="673" d="M49 0v33q41 0 59.5 4t38 20.5t26.5 56.5t11 102.5t4 168.5v764v65q2 135 -15 155t-124 -1v35l445 113v-1131q0 -88 2 -145.5t9 -97.5t15 -61.5t27.5 -32.5t37 -13t50.5 -2v-33h-586zM166 1810h215l84 -231h-109z" />
<glyph unicode="&#xed;" horiz-adv-x="673" d="M49 0v33q41 0 59.5 4t38 20.5t26.5 56.5t11 102.5t4 168.5v764v65q2 135 -15 155t-124 -1v35l445 113v-1131q0 -104 4 -167.5t11 -103.5t27.5 -56.5t39 -20.5t59.5 -4v-33h-586zM164 1579l84 231h217l-191 -231h-110z" />
<glyph unicode="&#xee;" horiz-adv-x="673" d="M49 0v33q41 0 59.5 4t38 20.5t26.5 56.5t11 102.5t4 168.5v764v65q2 135 -15 155t-124 -1v35l445 113v-1131q0 -104 4 -167.5t11 -103.5t27.5 -56.5t39 -20.5t59.5 -4v-33h-586zM125 1579l84 231h213l84 -231h-109l-82 98l-82 -98h-108z" />
<glyph unicode="&#xef;" horiz-adv-x="673" d="M18.5 1680.5q-4.5 25.5 6.5 50.5q18 45 85.5 69.5t131.5 -0.5q55 -25 75.5 -63.5t4.5 -77.5q-18 -43 -88 -67.5t-132 -2.5q-37 18 -58 42t-25.5 49.5zM47 0v33q41 0 59.5 4t39 20.5t27.5 56.5t11 103.5t4 167.5v764q0 25 2 65v77t-6 47.5t-11 30.5t-25.5 10t-39 1 t-61.5 -12v35l447 113v-1131q0 -106 4 -168.5t11 -102.5t26.5 -56.5t38 -20.5t59.5 -4v-33h-586zM301 1680.5q-4 25.5 4 50.5q18 45 87 69.5t132 -0.5q55 -25 75.5 -63.5t2.5 -77.5q-18 -43 -87 -67.5t-128 -2.5q-39 18 -60.5 42t-25.5 49.5z" />
<glyph unicode="&#xf0;" horiz-adv-x="1282" d="M86 553q0 125 25.5 226.5t81 182t150.5 124.5t224 44q84 0 193.5 -29.5t128.5 -56.5q-10 184 -73.5 346t-153.5 179v6l-168 -426h-117l39 98q-55 -61 -146 -61q-51 0 -95 22.5t-66.5 56t-22.5 66.5q0 106 130 198.5t329 92.5h20l74 188h117l-80 -200q246 -35 387 -272.5 t141 -592.5q0 -227 -61.5 -399t-193.5 -275.5t-320 -103.5q-168 0 -294 80t-187.5 212t-61.5 294zM391 532q0 -246 70.5 -385t156.5 -139q47 0 97.5 59.5t92.5 159t68.5 244.5t26.5 303q0 10 -2 36t-2 42q-43 92 -117.5 149.5t-128.5 57.5q-106 0 -184 -157t-78 -370z M455 1341l90 234v2q-88 -35 -90 -236z" />
<glyph unicode="&#xf1;" horiz-adv-x="1472" d="M49 0v33q41 0 59.5 4t38 20.5t26.5 56.5t11 102.5t4 168.5v764v65q2 135 -15 155t-124 -1v35l445 113v-95q12 14 63 40t132 50.5t149 24.5q125 0 225 -48t165.5 -151.5t65.5 -249.5v-702q0 -104 4.5 -167.5t11.5 -103.5t27.5 -56.5t39 -20.5t59.5 -4v-33h-586v33 q29 0 44 2t33.5 8t26 21.5t16.5 39t12 63.5t5 91t2 127v702q0 371 -201 371q-160 0 -294 -178v-895q0 -104 4 -167.5t11 -103.5t27.5 -56.5t39 -20.5t59.5 -4v-33h-586zM500 1612q0 70 44 134t122 64q51 0 97 -27.5t73.5 -54t35.5 -26.5v2t2.5 9t3.5 15.5t2 21.5t1 28h104 q0 -82 -33.5 -140.5t-111.5 -58.5q-51 0 -100.5 27.5t-79 56.5t-35.5 29q-20 -37 -21 -80h-104z" />
<glyph unicode="&#xf2;" horiz-adv-x="1499" d="M66 750q0 158 51 301t139 249.5t217.5 170t276.5 63.5q195 0 352.5 -108.5t243.5 -286.5t86 -388t-85 -389.5t-244 -288t-353 -108.5q-197 0 -354.5 108.5t-243.5 288t-86 388.5zM371 750q0 -213 44 -380t131 -264.5t204 -97.5t203.5 97.5t130.5 264.5t44 380t-44 380.5 t-131 265t-203 97.5q-117 0 -204 -97.5t-131 -265t-44 -380.5zM494 1810h215l84 -231h-109z" />
<glyph unicode="&#xf3;" horiz-adv-x="1499" d="M66 750q0 158 51 301t139 249.5t217.5 170t276.5 63.5q195 0 352.5 -108.5t243.5 -286.5t86 -388t-85 -389.5t-244 -288t-353 -108.5q-197 0 -354.5 108.5t-243.5 288t-86 388.5zM371 750q0 -213 44 -380t131 -264.5t204 -97.5t203.5 97.5t130.5 264.5t44 380t-44 380.5 t-131 265t-203 97.5q-117 0 -204 -97.5t-131 -265t-44 -380.5zM705 1579l83 231h216l-191 -231h-108z" />
<glyph unicode="&#xf4;" horiz-adv-x="1499" d="M66 750q0 158 51 301t139 249.5t217.5 170t276.5 63.5q195 0 352.5 -108.5t243.5 -286.5t86 -388t-85 -389.5t-244 -288t-353 -108.5q-197 0 -354.5 108.5t-243.5 288t-86 388.5zM371 750q0 -213 44 -380t131 -264.5t204 -97.5t203.5 97.5t130.5 264.5t44 380t-44 380.5 t-131 265t-203 97.5q-117 0 -204 -97.5t-131 -265t-44 -380.5zM565 1579l84 231h215l84 -231h-112l-80 98l-80 -98h-111z" />
<glyph unicode="&#xf5;" horiz-adv-x="1499" d="M66 750q0 158 51 301t139 249.5t217.5 170t276.5 63.5q195 0 352.5 -108.5t243.5 -286.5t86 -388t-85 -389.5t-244 -288t-353 -108.5q-197 0 -354.5 108.5t-243.5 288t-86 388.5zM371 750q0 -213 44 -380t131 -264.5t204 -97.5t203.5 97.5t130.5 264.5t44 380t-44 380.5 t-131 265t-203 97.5q-117 0 -204 -97.5t-131 -265t-44 -380.5zM506 1612q0 70 44 134t122 64q51 0 97 -27.5t73.5 -54t36.5 -26.5l2 7t4 26.5t2 42.5h104q0 -37 -7 -70t-23.5 -63.5t-45 -48t-69.5 -17.5q-51 0 -100.5 27.5t-79 56.5t-35.5 29q-20 -37 -21 -80h-104z" />
<glyph unicode="&#xf6;" horiz-adv-x="1499" d="M66 750q0 158 51 301t139 249.5t217.5 170t276.5 63.5q195 0 352.5 -108.5t243.5 -286.5t86 -388t-85 -389.5t-244 -288t-353 -108.5q-197 0 -354.5 108.5t-243.5 288t-86 388.5zM371 750q0 -213 44 -380t131 -264.5t204 -97.5t203.5 97.5t130.5 264.5t44 380t-44 380.5 t-131 265t-203 97.5q-117 0 -204 -97.5t-131 -265t-44 -380.5zM451 1696q0 41 46 77.5t111.5 36.5t111.5 -36.5t46 -77.5q0 -43 -46 -80t-111.5 -37t-111.5 37t-46 80zM733 1696q0 41 46 77.5t110.5 36.5t111 -36.5t46.5 -77.5q0 -43 -46.5 -80t-112 -37t-110.5 37t-45 80z " />
<glyph unicode="&#xf7;" horiz-adv-x="1257" d="M133 684v41h991v-41h-991zM444 371q0 53 53.5 98t133.5 45q76 0 129 -45t53 -98q0 -35 -23.5 -67t-66.5 -54.5t-92 -22.5q-53 0 -96 22.5t-67 54.5t-24 67zM444 1039.5q0 52.5 54.5 97.5t132.5 45q76 0 129 -45t53 -97.5t-53 -98.5t-129 -46q-78 0 -132.5 46t-54.5 98.5z " />
<glyph unicode="&#xf8;" horiz-adv-x="1499" d="M66 750q0 158 51 301t139 249.5t217 170t277 63.5q23 0 47 -2t43.5 -4t36 -4t26.5 -3t12 -1l43 153h121l-57 -198q184 -86 297 -283t113 -442q0 -209 -85 -388.5t-244 -288t-353 -108.5q-23 0 -48.5 1t-45 4t-37 6.5t-26.5 4.5l-9 1l-45 -154h-121l59 197 q-186 86 -298.5 283.5t-112.5 441.5zM371 750q0 -209 44 -388.5t95 -224.5l383 1309q-63 47 -143 47q-117 0 -204 -97.5t-131 -265t-44 -380.5zM606 55q62 -47 144 -47q117 0 203.5 97.5t130.5 264.5t44 380q0 211 -44 390t-95 224z" />
<glyph unicode="&#xf9;" horiz-adv-x="1466" d="M37 1368v35l444 113v-1102q0 -201 51.5 -286t147.5 -85q154 0 299 178v926q0 25 2 65v78t-6 48.5t-11.5 30.5t-25.5 10t-38.5 1t-61.5 -12v35l444 113v-1162v-59q0 -57 -1 -81t5 -50.5t11.5 -31.5t27 -10t38.5 -1t60 10v-33l-444 -112v98q-18 -23 -132 -70t-212 -47 q-123 0 -224.5 47t-168 150.5t-66.5 249.5v733v67q0 53 1 76t-5 48.5t-11 30.5t-25.5 10t-39 1t-59.5 -12zM449 1810h215l84 -231h-111z" />
<glyph unicode="&#xfa;" horiz-adv-x="1466" d="M37 1368v35l444 113v-1102q0 -201 51.5 -286t147.5 -85q154 0 299 178v926q0 25 2 65v78t-6 48.5t-11.5 30.5t-25.5 10t-38.5 1t-61.5 -12v35l444 113v-1162v-59q0 -57 -1 -81t5 -50.5t11.5 -31.5t27 -10t38.5 -1t60 10v-33l-444 -112v98q-18 -23 -132 -70t-212 -47 q-123 0 -224.5 47t-168 150.5t-66.5 249.5v733v67q0 53 1 76t-5 48.5t-11 30.5t-25.5 10t-39 1t-59.5 -12zM657 1579l84 231h220l-191 -231h-113z" />
<glyph unicode="&#xfb;" horiz-adv-x="1466" d="M37 1368v35l444 113v-1102q0 -201 51.5 -286t147.5 -85q154 0 299 178v926q0 25 2 65v78t-6 48.5t-11.5 30.5t-25.5 10t-38.5 1t-61.5 -12v35l444 113v-1162v-59q0 -57 -1 -81t5 -50.5t11.5 -31.5t27 -10t38.5 -1t60 10v-33l-444 -112v98q-18 -23 -132 -70t-212 -47 q-123 0 -224.5 47t-168 150.5t-66.5 249.5v733v67q0 53 1 76t-5 48.5t-11 30.5t-25.5 10t-39 1t-59.5 -12zM514 1579l84 231h213l82 -231h-109l-79 98l-82 -98h-109z" />
<glyph unicode="&#xfc;" horiz-adv-x="1466" d="M37 1368v35l444 113v-1102q0 -201 51.5 -286t147.5 -85q154 0 299 178v926q0 25 2 65v78t-6 48.5t-11.5 30.5t-25.5 10t-38.5 1t-61.5 -12v35l444 113v-1162v-59q0 -57 -1 -81t5 -50.5t11.5 -31.5t27 -10t38.5 -1t60 10v-33l-444 -112v98q-18 -23 -132 -70t-212 -47 q-123 0 -224.5 47t-168 150.5t-66.5 249.5v733v67q0 53 1 76t-5 48.5t-11 30.5t-25.5 10t-39 1t-59.5 -12zM412 1696q0 41 46 77.5t111 36.5q43 0 80 -18t57.5 -44t20.5 -52q0 -43 -46 -80t-111.5 -37t-111.5 37t-46 80zM694 1696q0 41 46 77.5t110.5 36.5t111 -36.5 t46.5 -77.5q0 -43 -46 -80t-112 -37q-43 0 -80 18.5t-56.5 45t-19.5 53.5z" />
<glyph unicode="&#xfd;" horiz-adv-x="1243" d="M-35 -385q0 33 22.5 65.5t66.5 55t96 22.5q78 0 130 -45t52 -98q0 -39 4 -73t9 -50t7 -16q49 0 107.5 128t105.5 304h-10l-313 1126q-25 88 -43.5 143.5t-38 95.5t-32.5 59.5t-37.5 30.5t-42 12t-54.5 1v33h586v-33q-33 0 -49.5 -2t-32 -14t-16.5 -32.5t3 -63.5 t18.5 -101.5t39.5 -148.5l168 -588l168 588q25 90 39 148.5t18 101.5t3 63.5t-16.5 32.5t-32 14t-48.5 2v33h405v-33q-31 0 -47 -1t-37.5 -7t-34 -20.5t-29 -37t-30.5 -61.5t-31.5 -89t-38.5 -126l-311 -1110q-25 -88 -46 -151.5t-50 -129t-61.5 -109.5t-74.5 -80t-94.5 -53 t-115.5 -17q-123 0 -202 66.5t-79 164.5zM657 1495l84 234h217l-190 -234h-111z" />
<glyph unicode="&#xfe;" horiz-adv-x="1439" d="M-12 -414q41 0 59.5 4t37.5 20.5t26.5 56.5t11.5 103.5t4 168.5v1574v68q0 53 1 74.5t-5 48.5t-11.5 32t-25.5 9t-38.5 1t-59.5 -11v32l444 115v-557q18 23 66.5 49.5t125 49t150.5 22.5q182 0 321.5 -103.5t209 -270.5t69.5 -367q0 -195 -91 -365t-247.5 -271.5 t-341.5 -101.5q-96 0 -233 39l-31 4h2v-71q0 -88 2 -145.5t9.5 -97.5t15.5 -61.5t27.5 -33t37 -13.5t49.5 -2v-32h-585v32zM432 682q0 -154 12.5 -268.5t41 -211t80.5 -145.5t128 -49q109 0 182.5 92.5t107.5 246t34 358.5q0 166 -27.5 297t-73 208.5t-100.5 117.5t-117 40 q-109 0 -268 -174v-512z" />
<glyph unicode="&#xff;" horiz-adv-x="1243" d="M-35 -385q0 33 22.5 65.5t66.5 55t96 22.5q78 0 130 -45t52 -98q0 -39 4 -73t9 -50t7 -16q49 0 107.5 128t105.5 304h-10l-313 1126q-25 88 -43.5 143.5t-38 95.5t-32.5 59.5t-37.5 30.5t-42 12t-54.5 1v33h586v-33q-33 0 -49.5 -2t-32 -14t-16.5 -32.5t3 -63.5 t18.5 -101.5t39.5 -148.5l168 -588l168 588q25 90 39 148.5t18 101.5t3 63.5t-16.5 32.5t-32 14t-48.5 2v33h405v-33q-31 0 -47 -1t-37.5 -7t-34 -20.5t-29 -37t-30.5 -61.5t-31.5 -89t-38.5 -126l-311 -1110q-25 -88 -46 -151.5t-50 -129t-61.5 -109.5t-74.5 -80t-94.5 -53 t-115.5 -17q-123 0 -202 66.5t-79 164.5zM422 1591q-10 41 19.5 80t90.5 55q43 8 87.5 -4t73 -35.5t36.5 -52.5q4 -25 -6 -51.5t-38 -49t-71 -32.5q-63 -14 -122.5 16.5t-69.5 73.5zM702 1591q-10 41 21 80t94 55q61 12 121.5 -18.5t71.5 -73.5q8 -41 -22 -80t-93 -53 q-41 -10 -84 2.5t-72.5 37t-36.5 50.5z" />
<glyph unicode="&#x152;" horiz-adv-x="2441" d="M59 887q0 184 63.5 354t172 295t261.5 199.5t323 74.5q111 0 224.5 -32.5t183 -71.5t93.5 -68q-2 39 -7 58.5t-20.5 31t-37 14.5t-64.5 3v33h1059v-559h-31q0 61 -4 115.5t-22.5 127t-50 123.5t-93 88t-143.5 37h-268v-788h153q152 0 202 35.5t50 140.5h33v-418h-33 q0 104 -50 139t-202 35h-153v-786h311q311 0 311 489h33v-557h-1102v33q82 0 103.5 17.5t25.5 88.5q-41 -51 -191.5 -111.5t-309.5 -60.5q-225 0 -415 126t-297.5 338t-107.5 456zM365 887q0 -246 63.5 -439.5t181 -303t269.5 -109.5q223 0 365.5 231t148.5 596v51 q-6 367 -148.5 598.5t-365.5 231.5q-152 0 -269.5 -109.5t-181 -304t-63.5 -442.5z" />
<glyph unicode="&#x153;" horiz-adv-x="2408" d="M66 750q0 158 51 301t139 249.5t217 170t277 63.5q182 0 337.5 -92t210.5 -203q61 113 216 205t307 92q188 0 330.5 -101.5t142.5 -263.5q0 -96 -62.5 -177t-158 -134t-214 -92t-227 -56.5t-200.5 -19.5q0 -113 28.5 -226.5t81.5 -213.5t146.5 -163.5t207.5 -63.5 q185 0 390 307l84 -58q-88 -133 -225.5 -220t-323.5 -87q-170 0 -328 85t-213 184q-55 -102 -204.5 -186.5t-325.5 -84.5q-197 0 -354.5 108.5t-243.5 288t-86 388.5zM371 750q0 -213 44 -380t131 -264.5t204 -97.5t203.5 97.5t130.5 264.5t44 380t-44 380.5t-131 265 t-203 97.5q-117 0 -204 -97.5t-131 -265t-44 -380.5zM1432 735q137 4 264 63.5t212 172t85 248.5q0 90 -25.5 154.5t-63.5 92t-83 27.5q-102 0 -193.5 -110.5t-143.5 -285.5t-52 -362z" />
<glyph unicode="&#x2c6;" horiz-adv-x="520" d="M70 1581l82 231h215l84 -231h-111l-80 98l-82 -98h-108z" />
<glyph unicode="&#x2dc;" horiz-adv-x="632" d="M74 1614q0 70 44 134t120 64q53 0 98 -27.5t73.5 -54t36.5 -26.5l2 7q1 7 4 26.5t3 42.5h51h51q0 -82 -34 -140.5t-109 -58.5q-51 0 -100.5 27.5t-80 56.5t-34.5 29q-20 -37 -21 -80h-104z" />
<glyph unicode="&#x2000;" horiz-adv-x="1067" />
<glyph unicode="&#x2001;" horiz-adv-x="2134" />
<glyph unicode="&#x2002;" horiz-adv-x="1067" />
<glyph unicode="&#x2003;" horiz-adv-x="2134" />
<glyph unicode="&#x2004;" horiz-adv-x="711" />
<glyph unicode="&#x2005;" horiz-adv-x="533" />
<glyph unicode="&#x2006;" horiz-adv-x="355" />
<glyph unicode="&#x2007;" horiz-adv-x="355" />
<glyph unicode="&#x2008;" horiz-adv-x="266" />
<glyph unicode="&#x2009;" horiz-adv-x="426" />
<glyph unicode="&#x200a;" horiz-adv-x="118" />
<glyph unicode="&#x2010;" horiz-adv-x="1132" d="M70 633v143h991v-143h-991z" />
<glyph unicode="&#x2011;" horiz-adv-x="1132" d="M70 633v143h991v-143h-991z" />
<glyph unicode="&#x2012;" horiz-adv-x="1132" d="M70 633v143h991v-143h-991z" />
<glyph unicode="&#x2013;" horiz-adv-x="919" d="M51 375v43h817v-43h-817z" />
<glyph unicode="&#x2014;" horiz-adv-x="1302" d="M51 375v43h1200v-43h-1200z" />
<glyph unicode="&#x2018;" horiz-adv-x="548" d="M80 1413q0 88 75.5 183.5t176 153.5t174.5 58v-10q-49 -29 -79 -100.5t-38 -128t-8 -103.5z" />
<glyph unicode="&#x2019;" horiz-adv-x="571" d="M76 1421v15q49 27 78.5 97.5t38 126.5t8.5 105l301 54q0 -90 -76 -184.5t-176 -154t-174 -59.5z" />
<glyph unicode="&#x201a;" horiz-adv-x="438" d="M-53 -262q49 29 78.5 100.5t38 128t8.5 105.5l301 53q0 -90 -76 -186.5t-176.5 -154.5t-173.5 -58v12z" />
<glyph unicode="&#x201c;" horiz-adv-x="901" d="M80 1413q0 88 75.5 183.5t176 153.5t174.5 58v-10q-31 -18 -54.5 -52t-36 -72t-20.5 -81t-11 -72.5t-3 -54.5zM432 1413q0 88 76 183.5t175 153.5t173 58v-10q-47 -29 -77.5 -100.5t-38 -128t-7.5 -101.5z" />
<glyph unicode="&#x201d;" horiz-adv-x="909" d="M76 1421v15q49 27 78.5 97.5t38 126.5t8.5 105l301 54q0 -90 -76 -184.5t-176 -154t-174 -59.5zM414 1421v15q47 27 77.5 97.5t38 126.5t7.5 105l303 54q0 -90 -76 -184.5t-176.5 -154t-173.5 -59.5z" />
<glyph unicode="&#x201e;" horiz-adv-x="768" d="M-53 -262q49 29 78.5 100.5t38 128t8.5 105.5l301 53q0 -90 -76 -186.5t-176.5 -154.5t-173.5 -58v12zM274 -262q49 29 80 100.5t38 128t7 105.5l301 53q0 -90 -75.5 -186.5t-175 -154.5t-175.5 -58v12z" />
<glyph unicode="&#x2022;" horiz-adv-x="659" d="M97.5 963.5q27.5 74.5 113.5 115.5q92 45 197.5 14.5t142.5 -110.5q37 -70 10.5 -142.5t-112.5 -115.5q-94 -45 -200 -15.5t-138 101.5q-41 78 -13.5 152.5z" />
<glyph unicode="&#x2026;" horiz-adv-x="1452" d="M78 106.5q0 53.5 53 99.5t131 46t130 -46t52 -99.5t-52 -97.5t-130 -44t-131 44t-53 97.5zM543 106.5q0 53.5 53 99.5t131 46q76 0 129 -46t53 -99.5t-53 -97.5t-129 -44q-78 0 -131 44t-53 97.5zM1006 106q0 20 8 41t25.5 39.5t39 32.5t50 23.5t59.5 9.5q78 0 132 -46 t54 -99.5t-54 -97.5t-132 -44q-76 0 -129 44t-53 97z" />
<glyph unicode="&#x202f;" horiz-adv-x="426" />
<glyph unicode="&#x2039;" horiz-adv-x="741" d="M80 702l467 564h108l-364 -564l364 -561h-108z" />
<glyph unicode="&#x203a;" horiz-adv-x="741" d="M86 141l365 561l-365 564h109l467 -564l-467 -561h-109z" />
<glyph unicode="&#x205f;" horiz-adv-x="533" />
<glyph unicode="&#x20ac;" horiz-adv-x="1597" d="M90 629v41h121q-18 100 -18 180h-103v39h103q0 248 92 455.5t269 335.5t400 128q342 0 465 -196q57 -113 35 -186.5t-82.5 -109.5t-138.5 -36q-98 0 -141 42t-43 103q0 23 4 66t7 77t1 72.5t-11.5 65.5t-33 44t-62.5 17q-111 0 -200.5 -70.5t-144 -187t-84 -259 t-29.5 -294.5v-67h307v-39h-305q8 -96 26 -180h279v-41h-268q41 -162 111.5 -289t155.5 -198.5t173 -80.5q266 -27 428 297l102 -57q-80 -154 -225 -245t-326 -91q-276 0 -468.5 185.5t-264.5 478.5h-131z" />
<glyph unicode="&#x2122;" horiz-adv-x="1497" d="M88 1595v213h551v-213h-21q0 193 -75 193h-84l-4 -502q0 -90 10 -110.5t47 -20.5v-16h-297v16q14 0 21.5 2t15.5 9.5t10 22.5t4 38.5t2 64.5v496h-86q-25 0 -41 -20.5t-23 -53.5t-10.5 -61.5t-3.5 -57.5h-16zM672 1139v16h2q39 0 45 10.5t6 71.5v49v375v47q0 61 -6 71.5 t-45 10.5h-2v18h237l127 -381l127 381h238v-18h-2q-37 0 -43 -10.5t-6 -69.5v-49v-375v-49q0 -61 6 -71.5t43 -10.5h2v-16h-293v16h6q33 0 39 10.5t6 69.5q0 10 -1 16t-1 15.5v19.5v209l-119 -356h-94l-119 356v-209v-49q0 -61 6.5 -71.5t42.5 -10.5h5v-16h-207z" />
<glyph unicode="&#x25fc;" horiz-adv-x="1505" d="M0 0v1505h1505v-1505h-1505z" />
</font>
</defs>
</svg>
